<?xml version="1.0" encoding="UTF-8"?>
<svg id="Layer_1" data-name="Layer 1" xmlns="http://www.w3.org/2000/svg" xmlns:xlink="http://www.w3.org/1999/xlink" viewBox="0 0 559.54 452.86">
  <defs>
    <style>
      .cls-1 {
        clip-path: url(#clippath-11);
      }

      .cls-2 {
        fill: #c97358;
      }

      .cls-2, .cls-3, .cls-4 {
        fill-rule: evenodd;
      }

      .cls-5 {
        clip-path: url(#clippath-2);
      }

      .cls-6 {
        clip-path: url(#clippath-6);
      }

      .cls-7 {
        stroke: #fff;
      }

      .cls-7, .cls-8 {
        stroke-width: .75px;
      }

      .cls-7, .cls-8, .cls-9 {
        stroke-linejoin: round;
      }

      .cls-7, .cls-8, .cls-9, .cls-10 {
        fill: none;
      }

      .cls-8, .cls-9 {
        stroke: #f2e3cc;
      }

      .cls-11 {
        clip-path: url(#clippath-7);
      }

      .cls-3 {
        fill: #bee5e7;
      }

      .cls-12 {
        clip-path: url(#clippath-1);
      }

      .cls-9 {
        stroke-linecap: round;
        stroke-width: .88px;
      }

      .cls-13 {
        clip-path: url(#clippath-4);
      }

      .cls-14 {
        clip-path: url(#clippath-9);
      }

      .cls-15 {
        clip-path: url(#clippath);
      }

      .cls-10 {
        clip-rule: evenodd;
      }

      .cls-16 {
        clip-path: url(#clippath-3);
      }

      .cls-17 {
        clip-path: url(#clippath-8);
      }

      .cls-4 {
        fill: #bd512d;
      }

      .cls-18 {
        clip-path: url(#clippath-5);
      }

      .cls-19 {
        clip-path: url(#clippath-10);
      }

      .cls-20 {
        fill: #f2e3cc;
      }
    </style>
    <clipPath id="clippath">
      <polygon class="cls-10" points="0 452.86 559.54 452.86 559.54 .36 0 .36 0 452.86 0 452.86"/>
    </clipPath>
    <clipPath id="clippath-1">
      <polygon class="cls-10" points="0 452.86 559.54 452.86 559.54 .36 0 .36 0 452.86 0 452.86"/>
    </clipPath>
    <clipPath id="clippath-2">
      <polygon class="cls-10" points="0 452.86 559.54 452.86 559.54 .36 0 .36 0 452.86 0 452.86"/>
    </clipPath>
    <clipPath id="clippath-3">
      <polygon class="cls-10" points="0 452.86 559.54 452.86 559.54 .36 0 .36 0 452.86 0 452.86"/>
    </clipPath>
    <clipPath id="clippath-4">
      <polygon class="cls-10" points="0 452.86 559.54 452.86 559.54 .36 0 .36 0 452.86 0 452.86"/>
    </clipPath>
    <clipPath id="clippath-5">
      <polygon class="cls-10" points="0 452.86 559.54 452.86 559.54 .36 0 .36 0 452.86 0 452.86"/>
    </clipPath>
    <clipPath id="clippath-6">
      <polygon class="cls-10" points="0 452.86 559.54 452.86 559.54 .36 0 .36 0 452.86 0 452.86"/>
    </clipPath>
    <clipPath id="clippath-7">
      <polygon class="cls-10" points="0 452.86 559.54 452.86 559.54 .36 0 .36 0 452.86 0 452.86"/>
    </clipPath>
    <clipPath id="clippath-8">
      <polygon class="cls-10" points="0 452.86 559.54 452.86 559.54 .36 0 .36 0 452.86 0 452.86"/>
    </clipPath>
    <clipPath id="clippath-9">
      <polygon class="cls-10" points="0 452.86 559.54 452.86 559.54 .36 0 .36 0 452.86 0 452.86"/>
    </clipPath>
    <clipPath id="clippath-10">
      <polygon class="cls-10" points="0 452.86 559.54 452.86 559.54 .36 0 .36 0 452.86 0 452.86"/>
    </clipPath>
    <clipPath id="clippath-11">
      <polygon class="cls-10" points="0 452.86 559.54 452.86 559.54 .36 0 .36 0 452.86 0 452.86"/>
    </clipPath>
  </defs>
  <g>
    <path class="cls-2" d="M84.17,211.75l-1.92,2.7-.77-1.54c0-.39-.77-1.16-1.15-1.54-.38,0-1.15-.77-1.54-.77v-1.16s-.38,0,0-.39l.38-.39-.38-.77v.38h-.77l-.38-.77c-.38,0-.38-.39-.38-.39,0,0,0-.77,.38-.77,.38,.39,1.15,.77,1.15,.77,0,0,.77-.39,1.15-.77,0,0,.38,0,0-.38,0-.77-.38-.77-.38-1.16l.77-1.54c.38-.39,0-1.54,0-1.93s-.38-.77-.38-1.16,.38-1.16,.38-1.54,0-1.54-.38-1.93c-.77-.38-2.31-2.7-2.69-3.08,0-.39-.77-1.93-.77-2.31s-.38-2.31-.77-2.7c-.38-.39-1.54-1.16-1.54-1.54s0-1.93-.38-2.31c0-.39-.38-1.16-.77-1.54-.77-.38-1.54-1.54-1.92-1.93-.38-.38-1.15-1.16-1.15-1.16v1.16s-.38,0-.77-.38l-.77-.77c0-.39-.77-.77-.77-1.16-.38,0-.77-.77-.77-1.16,0,0-.38-1.16-.77-1.16l.38-.39c.38-.39,.77-1.54,1.15-1.54,0-.39,.38-1.54,.38-2.31,0-.39-.38-1.16-1.15-1.54h-2.31c-.38,0-.77-.77-1.15-1.16-.38-.38-.77-.38-.77-.77,.38-.77,0-1.16,0-1.54s-.38-1.54-.77-1.93c-.38-.77-1.54-3.08-1.54-3.47-.38-.38-1.15-1.93-1.15-2.7s-.38-1.54-.77-2.31c-.38-.77-.77-1.16-.77-1.54-.38-.77,0-.77-.38-1.16,0-.38-1.15-.77-1.15-1.16-.38-.39-.38-.77-.38-1.16,0,0,0-.39-.77-.77s-1.15-.77-1.15-1.16,0-.77-.38-1.16v-1.54c0-.77,0-1.54-.38-1.16h-.77c0-.39-.38-1.16-.77-1.54,0-.38-.77-1.54-1.15-1.93-.38-.38-1.92-1.93-2.31-2.31-.38-.77-.77-1.54-.38-1.93,.38-.39,.38-.77,.38-1.16,0-.77,0-1.16-.38-1.54-.38-.39-.77-1.16-.77-1.54-.38,0-.38-.39-.77-.39,0-.39-.38-.77-.38-.77-.38-.38,0,0-.77-.38-.77-.39-.77-.77-1.15-1.16q0-.77-.38-1.16c-.38-.39-.38,0-.38-.39,0-.77-.38-1.16-.38-1.54q-.38,0-.38-.39v-1.54c0-.39-.38-.77-.38-1.16-.38-.38-.77-1.16-.77-1.54-.38-.39-.77-1.54-.77-2.31-.38-.38-.77-1.16-1.15-1.54-.38-.39-.77-.39-1.15-.77,0-.39,0-.77-.38-1.16,0-.39-.38-1.16-.77-1.54-.38-.39-.77-1.54-1.54-1.93-.38-.39-.77-.39-1.15-.77,0-.38,.38-.77,.77-.38,.38,0,1.15,0,.77-.77-.38-.39-.77-.77-1.15-.39-.38,0-1.15,0-1.92-.39-.38-.38-.77-1.16-1.15-1.16,0-.39-1.15,0-1.54,0-.38,.39-.77,.77-1.15,.77-.77,0-1.54,0-1.54-.39,0,0-.38-.77-.77-.77,0,0,0,.39-.38,.39h-1.54c-.77-.39-1.15-1.16-1.15-1.16,0,.38-.77,.77-1.15,.77,0,.39-.38,1.16-.38,1.54s-.38,.77-.38,.77c-.38,0-.77-.39-.77-.77s.77-.77,.38-1.16c-.38,0-1.15,0-1.15-.39s.77-1.16,1.15-1.54c.38-.39,.77-.77,1.15-1.16q.38-.77,.77-1.54c.38-.77,1.15-1.16,1.15-1.93,.38-.77,.38-1.54,.77-2.31,.38-.39,.38-1.54,.77-1.54,.38-.38,.77-1.16,.77-1.54,.38-.39,.38-1.54,.38-2.31,0-.38,0-.77-.38-1.16,0-.39,.77-1.93,.77-2.31s.77-1.54,1.15-1.93v-3.08l2.31-.39,1.54,.77,.77,.38,3.85,.39,3.85-2.31h5.77s2.69-.38,3.85-.77c1.15-.39,5.38,1.16,5.77,1.54,.38,.39,3.08,2.31,3.08,2.31l5.38,8.47,1.92,1.16,6.92-1.16,4.23-1.16,6.15,2.7h3.46l3.08,.38,2.31-5.39,2.31-.39,2.31-2.7,1.54,1.54-.38,2.31c0,.39-.38,2.7-.38,2.7v5.39l2.31,3.47,3.46,2.31,4.23,.77,3.46,.77,2.69-1.16,1.54,1.16h1.92l.77,2.31,1.54,.77,5-1.93,3.46,1.16,.38,.77,11.15,2.7,1.54,2.31,2.31,1.16,.77,1.54,3.46,2.31,1.54,6.55s0,.77,.38,3.08c.38,2.7,.77,3.47,3.85,5.78,4.23,1.54,2.69,4.62,2.69,4.62l-4.62,3.47-1.92,5.78-2.31,3.47-2.69-2.31s-3.85,.77-3.85,1.16c-.38,0-5.38,1.16-5.38,1.16l-5.77-1.16-5-3.47-2.69-.77v-2.7l-.77-.77s-1.15,0-1.15,.38c-.38,0,0,1.93,0,2.31s-1.54,.39-1.54,.39c-.38,0-2.69-1.54-3.08-1.54,0-.39-1.15,.77-1.15,.77l-3.85,1.54h-.77v-2.7l-2.69-2.7c-.38-.38,0-1.54,0-1.93-.38-.38-.77-.38-.77-.38-.38,0-2.31-.39-3.08,0-.38,0-1.92-.39-1.92-.77-.38,0-1.54-1.93-1.54-1.93,0-.39-1.15-1.93-1.54-2.7,0-.38,0-1.54-.38-1.93,0-.77-.77-1.54-1.15-1.54l-1.54-1.16-4.62,2.7-3.85-1.16-1.54-1.54c-.38-.39-2.31-.39-2.31-.39l-2.31,1.54-8.46,2.31v1.54l3.85,.77,1.15,2.7-.77,2.31v8.09l1.92,1.54,3.85,.77v1.54l1.15,1.16-3.08,3.85-.38,2.31,1.92,4.24v2.7h.38l1.92-1.16,4.23,2.7,.38,1.54,3.85,5.78,3.46,1.93v1.16l.77,1.93-1.54,1.93,1.54,1.54h3.08l.38,3.08-1.54,5.78v7.32l-1.92,3.85h-4.23l-3.85,2.7-4.62,.39h0ZM20.33,115.49q0-.39-.38-.77s0-.77-.38-.39h-.77c0-.39-.77-.39-.38-.77,0,.38,.77,0,.77-.39,.38-.39-.38-.39-.38-.39-.38,.39-.77,.39-.77,.77v.77c0,.77,.77,.77,.77,.77,.38,0,.77,.39,.77,.77,.38,0,.77,0,.77-.38h0Zm1.92-.77v.39l.38,.39v.77h.38l.38-.39v-.38c0-.39,0-.77-.38-.77,0-.39-.38,0-.77,0h0Zm39.62,67.77v.77q.38,0,.38,.39h.77v-.39q-.38-.38-.38-.77h-.77s0-.39,0,0h0Zm1.15-2.7c.38,0,.38,.39,.38,.39h.38v.39h.38v-.39q-.38,0-.38-.39l-.38-.39-.38,.39h0Zm7.31,9.63c0,.39,.38,.39,.77,.77q0,.39,.38,.39,0,.38,.38,.38h0c0-.38,0-.77-.38-.77,0-.39-.38-.77-.77-.77,0-.39-.38-.39-.38-.39v.39h0Zm3.46-.77v.77h.77v-.39s-.38,0-.38-.38h-.38Zm1.15,14.25c0,.39,.38,.39,.38,.39h.77c.38,0,.38-.39,0-.39q0-.39-.38-.77c-.38,0-.38,.38-.38,.38l-.38,.39h0Z"/>
    <path class="cls-8" d="M84.17,211.75l-1.92,2.7-.77-1.54c0-.39-.77-1.16-1.15-1.54-.38,0-1.15-.77-1.54-.77v-1.16s-.38,0,0-.39l.38-.39-.38-.77v.38h-.77l-.38-.77c-.38,0-.38-.39-.38-.39,0,0,0-.77,.38-.77,.38,.39,1.15,.77,1.15,.77,0,0,.77-.39,1.15-.77,0,0,.38,0,0-.38,0-.77-.38-.77-.38-1.16l.77-1.54c.38-.39,0-1.54,0-1.93s-.38-.77-.38-1.16,.38-1.16,.38-1.54,0-1.54-.38-1.93c-.77-.38-2.31-2.7-2.69-3.08,0-.39-.77-1.93-.77-2.31s-.38-2.31-.77-2.7c-.38-.39-1.54-1.16-1.54-1.54s0-1.93-.38-2.31c0-.39-.38-1.16-.77-1.54-.77-.38-1.54-1.54-1.92-1.93-.38-.38-1.15-1.16-1.15-1.16v1.16s-.38,0-.77-.38l-.77-.77c0-.39-.77-.77-.77-1.16-.38,0-.77-.77-.77-1.16,0,0-.38-1.16-.77-1.16l.38-.39c.38-.39,.77-1.54,1.15-1.54,0-.39,.38-1.54,.38-2.31,0-.39-.38-1.16-1.15-1.54h-2.31c-.38,0-.77-.77-1.15-1.16-.38-.38-.77-.38-.77-.77,.38-.77,0-1.16,0-1.54s-.38-1.54-.77-1.93c-.38-.77-1.54-3.08-1.54-3.47-.38-.38-1.15-1.93-1.15-2.7s-.38-1.54-.77-2.31c-.38-.77-.77-1.16-.77-1.54-.38-.77,0-.77-.38-1.16,0-.38-1.15-.77-1.15-1.16-.38-.39-.38-.77-.38-1.16,0,0,0-.39-.77-.77s-1.15-.77-1.15-1.16,0-.77-.38-1.16v-1.54c0-.77,0-1.54-.38-1.16h-.77c0-.39-.38-1.16-.77-1.54,0-.38-.77-1.54-1.15-1.93-.38-.38-1.92-1.93-2.31-2.31-.38-.77-.77-1.54-.38-1.93,.38-.39,.38-.77,.38-1.16,0-.77,0-1.16-.38-1.54-.38-.39-.77-1.16-.77-1.54-.38,0-.38-.39-.77-.39,0-.39-.38-.77-.38-.77-.38-.38,0,0-.77-.38-.77-.39-.77-.77-1.15-1.16q0-.77-.38-1.16c-.38-.39-.38,0-.38-.39,0-.77-.38-1.16-.38-1.54q-.38,0-.38-.39v-1.54c0-.39-.38-.77-.38-1.16-.38-.38-.77-1.16-.77-1.54-.38-.39-.77-1.54-.77-2.31-.38-.38-.77-1.16-1.15-1.54-.38-.39-.77-.39-1.15-.77,0-.39,0-.77-.38-1.16,0-.39-.38-1.16-.77-1.54-.38-.39-.77-1.54-1.54-1.93-.38-.39-.77-.39-1.15-.77,0-.38,.38-.77,.77-.38,.38,0,1.15,0,.77-.77-.38-.39-.77-.77-1.15-.39-.38,0-1.15,0-1.92-.39-.38-.38-.77-1.16-1.15-1.16,0-.39-1.15,0-1.54,0-.38,.39-.77,.77-1.15,.77-.77,0-1.54,0-1.54-.39,0,0-.38-.77-.77-.77,0,0,0,.39-.38,.39h-1.54c-.77-.39-1.15-1.16-1.15-1.16,0,.38-.77,.77-1.15,.77,0,.39-.38,1.16-.38,1.54s-.38,.77-.38,.77c-.38,0-.77-.39-.77-.77s.77-.77,.38-1.16c-.38,0-1.15,0-1.15-.39s.77-1.16,1.15-1.54c.38-.39,.77-.77,1.15-1.16q.38-.77,.77-1.54c.38-.77,1.15-1.16,1.15-1.93,.38-.77,.38-1.54,.77-2.31,.38-.39,.38-1.54,.77-1.54,.38-.38,.77-1.16,.77-1.54,.38-.39,.38-1.54,.38-2.31,0-.38,0-.77-.38-1.16,0-.39,.77-1.93,.77-2.31s.77-1.54,1.15-1.93v-3.08l2.31-.39,1.54,.77,.77,.38,3.85,.39,3.85-2.31h5.77s2.69-.38,3.85-.77c1.15-.39,5.38,1.16,5.77,1.54,.38,.39,3.08,2.31,3.08,2.31l5.38,8.47,1.92,1.16,6.92-1.16,4.23-1.16,6.15,2.7h3.46l3.08,.38,2.31-5.39,2.31-.39,2.31-2.7,1.54,1.54-.38,2.31c0,.39-.38,2.7-.38,2.7v5.39l2.31,3.47,3.46,2.31,4.23,.77,3.46,.77,2.69-1.16,1.54,1.16h1.92l.77,2.31,1.54,.77,5-1.93,3.46,1.16,.38,.77,11.15,2.7,1.54,2.31,2.31,1.16,.77,1.54,3.46,2.31,1.54,6.55s0,.77,.38,3.08c.38,2.7,.77,3.47,3.85,5.78,4.23,1.54,2.69,4.62,2.69,4.62l-4.62,3.47-1.92,5.78-2.31,3.47-2.69-2.31s-3.85,.77-3.85,1.16c-.38,0-5.38,1.16-5.38,1.16l-5.77-1.16-5-3.47-2.69-.77v-2.7l-.77-.77s-1.15,0-1.15,.38c-.38,0,0,1.93,0,2.31s-1.54,.39-1.54,.39c-.38,0-2.69-1.54-3.08-1.54,0-.39-1.15,.77-1.15,.77l-3.85,1.54h-.77v-2.7l-2.69-2.7c-.38-.38,0-1.54,0-1.93-.38-.38-.77-.38-.77-.38-.38,0-2.31-.39-3.08,0-.38,0-1.92-.39-1.92-.77-.38,0-1.54-1.93-1.54-1.93,0-.39-1.15-1.93-1.54-2.7,0-.38,0-1.54-.38-1.93,0-.77-.77-1.54-1.15-1.54l-1.54-1.16-4.62,2.7-3.85-1.16-1.54-1.54c-.38-.39-2.31-.39-2.31-.39l-2.31,1.54-8.46,2.31v1.54l3.85,.77,1.15,2.7-.77,2.31v8.09l1.92,1.54,3.85,.77v1.54l1.15,1.16-3.08,3.85-.38,2.31,1.92,4.24v2.7h.38l1.92-1.16,4.23,2.7,.38,1.54,3.85,5.78,3.46,1.93v1.16l.77,1.93-1.54,1.93,1.54,1.54h3.08l.38,3.08-1.54,5.78v7.32l-1.92,3.85h-4.23l-3.85,2.7-4.62,.39h0ZM20.33,115.49q0-.39-.38-.77s0-.77-.38-.39h-.77c0-.39-.77-.39-.38-.77,0,.38,.77,0,.77-.39,.38-.39-.38-.39-.38-.39-.38,.39-.77,.39-.77,.77v.77c0,.77,.77,.77,.77,.77,.38,0,.77,.39,.77,.77,.38,0,.77,0,.77-.38h0Zm1.92-.77v.39l.38,.39v.77h.38l.38-.39v-.38c0-.39,0-.77-.38-.77,0-.39-.38,0-.77,0h0Zm39.62,67.77v.77q.38,0,.38,.39h.77v-.39q-.38-.38-.38-.77h-.77s0-.39,0,0h0Zm1.15-2.7c.38,0,.38,.39,.38,.39h.38v.39h.38v-.39q-.38,0-.38-.39l-.38-.39-.38,.39h0Zm7.31,9.63c0,.39,.38,.39,.77,.77q0,.39,.38,.39,0,.38,.38,.38h0c0-.38,0-.77-.38-.77,0-.39-.38-.77-.77-.77,0-.39-.38-.39-.38-.39v.39h0Zm3.46-.77v.77h.77v-.39s-.38,0-.38-.38h-.38Zm1.15,14.25c0,.39,.38,.39,.38,.39h.77c.38,0,.38-.39,0-.39q0-.39-.38-.77c-.38,0-.38,.38-.38,.38l-.38,.39h0Z"/>
    <g class="cls-15">
      <path class="cls-4" d="M546.31,262.27l-1.54,1.93-65.42-4.24-27.32-32.34v-3.85s-.38,0-.77,.39l-1.15-.77s-.38-.39-.77-.77c0-.39-.77-.77-.77-.77,0,0-1.15,0-1.54,.39-.38,0-.77,.39-.77,.77-.38,.39-1.54,0-1.92,0-.77-.38-.38-.77-.38-1.16s.38-.77,.77-1.16v-1.16q0-.39,.38-.77c.38,0,1.54-.77,1.92-.77v-1.16s0-.77,.38-1.16c0-.39,.77-.39,1.15-.39,.38,.39,.38-.38,.38-.38,0,0-.38-.39-.77-.39,0-.39-.77-.77-1.15-.77,0-.39-.38,.39-.38,.77-.38,.39-1.15,1.16-1.54,1.16,0,.39-.77,1.16-1.15,1.16-.38,.38-1.92,.77-1.92,.77-.38,0-1.92,.39-2.69,.39-1.15,.39-2.31-.39-2.69-.77-.77,0-1.92-.77-2.31-1.16l-3.08-5.39h-.77c-.38,.39-.77,0-.77-.39,0,0-.38-1.16-.38-1.54l-.38-.39v-1.16q-.38-.39-.77-.39l-.38-.39c0-.39-.38-.77-.38-.77,0-.38-.77-1.16-.77-1.54s-1.54-2.31-1.54-2.31c-.38,0,0,.39-.38,.77h0c-.38-.39-.38-1.16-.38-1.54v-.39l-.38-.39v-.77c.38,0,0-.39,0-.39,.38-.39,0-1.16,0-1.16-.38-.38-.77-.38-.77-.77-.38,0-.38-.39,0-.77v-1.16c.38,0,0-.77,0-.77,0-.39-.38-.77-.77-.77v-.77c0-.39-.77-1.16-1.15-1.16l-1.15-1.16s-.38-.77-.77-1.16c0,0-.38,0-.38,.39,0,0,.38,.38,.38,.77,0,0-.38,.39-.77,.39,0,0-.77-1.16-.77-1.54l-2.69-3.08c-.38-.38-.38-.77-.38-.77,0-.39-.38-.77-.38-.77l-1.54-1.16s.38-.77,.38-.39c.38,0,2.31,1.54,2.31,1.54,0,0,.38,.39,.38,0l-.38-.77c-.38-.39-1.92-2.7-2.31-3.08-.38,0-1.54-2.31-1.54-2.31v-.77c0-.39,.38-.39,.38-.77v-.77c0-.39-.38-.39-.77-.39s-.38,0-.77-.39h0c0-.39-.77-.39-.77,0,0,0,0,.39-.38,.39,0,0-.38,0-.38-.39v-1.93s.38,0,.38-.39c.38,0-.38-.39-.38-.39q-.38-.38-.38-.77v-.77c.38-.39,.77-1.54,1.15-1.54,0,.39,.38,.77,.38,.77,.38,.38,.38,.77,.77,.77,0,.39,.38,.77,.38,.77,.38,.39,.77,.39,.77,.77s0,.39-.38,.39v.77s0,.39,.38,.39h.38c.38-.39,.38-1.16,.38-1.16v-2.31c.38-.38,.77,0,1.15-.38,.38,0,.38-.39,.38-.77v-3.08h0q0-.39-.38-.77s0-.39,.38-.39c0,0,.38,0,.38-.39h0c0-.38-.38-.77-.77-.77,0,0-.38,0-.38-.39,0,0,.38,0,.38-.39h-.38s-.38,.39-.38,0v-.39l.38-.38v-.77c0-.39,.38-.77,0-.77,0-.38-.38-.38-.77,0v.77c0,.39-.38,.39-.38,.39q0,.39-.38,.39c0,.38,0,0,0,0v-.77l-.38-.39h-.38l-.38,.39v-.39h-.38c0,.39-.38,.39-.38,0h-.38c0-.39-.38-.39-.38-.77,0,0,0-.39-.38-.39v-.39h0q0-.39,.38-.39,0,.39,.38,.39h.38c.38,0,.38-.77,.38-.77,0-.38,0-.77-.38-.77h-1.15v.39h-.38v-1.54c-.38,0,0-.38-.38-.38l-.38-.39h0c-.38,0-.38-.39-.38-.39v-1.16h.38v-.39c0-.39,.38,0,.77,0v1.16h.38c.38,0,.38,.39,.77,0h1.15c0-.39-.38-.77-.38-.77q-.38-.39-.77-.77l-.38-.39q-.38-.39-.77-.77s-.38-.39-.38-.77l-.38-.39-.38-.39h-.38q0-.38-.38-.38c-.77-.39-1.54,0-2.31,0-.38-.39-1.15-.77-1.54-1.16,0,0-.38-.39-.77-.39-.38-.38-.77-.38-1.15-.77-.38,0-.77-.39-.77-.77-.38-.39-.38-1.16-.77-1.54s-.77-.39-1.15-.77c-.38-.38-.77-.77-1.15-1.16,0,0-.38-.39-.38-.77s0-.77-.38-1.16c0-.39-.38-.39-.38-.77v-1.16c0-.39-.38-.39-.77-.39,0,0-.38,0-.38-.39v-.38s0-.39-.38-.39v.39c-.38,.38-.38,.77,0,.77,0,.39,.38,.39,.77,.77h.38v.77h-.38v.39s-.38,0-.38,.39c-.38,0,0,.39,0,.39q.38,0,.38,.39s0,.38-.38,.38c0,0,0-.38-.38-.38h-.38q0,.38-.38,.38v-.38s0-.39-.38,0h-.38v.77q0,.39-.38,.39l-.38-.39q0-.39-.38-.39c0-.38-.38-.77,0-.77,0-.39,.77-.39,.77-.77l-.38-.39c-.77-.38-.77,0-.77,.39-.38,.39-.77,.39-.77,0-.38-.77,0-1.54-.38-1.93s0-1.16-.38-1.93q0-.39-.38-.39h-.77c-.38,.39-.77,0-.77-.38s0-.77,.38-.77c0-.39,.38-.39,.38-.77h-.38q-.38,0-.38,.39c-.38,.39-1.15,0-1.15,0-.38-.39-1.15-.77-.77-1.16h.77c.38,0,.38-.39,.77-.39v.39h.77s.38-.39,.77-.39c.77-.39,.38-1.54-.38-2.31-.38-.39-1.15-.77-1.54-.77h-1.54c-.77,0-1.92,0-2.69-.39-.38-.39-.77-1.16-1.54-1.16q0-.38-.38-.38c-.38,0-.77,0-.77,.38,0,0-.77,1.16-.77,.77v-1.16c0-.39-.38-.39-.38,0q-.38,0-.38,.38s0,.39-.38,.39l-.38-.39q0-.38,.38-.77s.38,0,.38-.39h-.38c-.38-.39,0-.39-.38-.77,0-.38-.38-.38-.38-.38v-.39c-.38,0,0-.39-.38-.39-.38-.39-.77,.39-1.15,0v-.39c.38-.39,.77-.39,.77-.77v-.39h0q-.38-.39,0-.77v-.39c.38-.38,.77,0,.77,0,0,0,.38,.39,.38,.77,0,0-.38,.77,0,.77,0,.38,0,.77,.38,.77s.38-.39,.38-.77c.38-.39,0-1.16,0-1.93,0-.39-.38-.77-.77-.77-.38-.39-.77-.77-1.15-1.16-.38-.39-.77-.77-1.15-.77,0-.39-.77-.77-.77-1.16v-.39h.77s.77,0,.38-.39c0-.39-.38-.39-.77-.39-.77-.39-1.54-.39-1.92-.77-.77-.77-2.69-1.93-1.92-3.08,0-.39,0-.77,.38-.77v-.77c0-.39-.38-.39-.38-.39-.38-.39-.38-.77-.77-.77,0-.39-.38-.39-.38-.77,0,0-.38-.39-.77-.39,0-.39-.38-.39-.38-.77-.38-.77-.38-1.16,0-1.93,0-.39,.38-.39,.38-.77l-.77-.77c-.38,0-.38-.38-.38-.77v-.77c-.38-.77-1.54-.77-1.54-1.16l-18.47,.39-2.69-3.85-.38-5.01-3.46-4.62-23.09-2.7-3.08,1.54-12.7-1.16-1.54,4.24-5.39,7.7-1.54,1.16-1.54,4.24-3.85,6.16-1.92,3.47-6.93,10.4-1.54,1.93-.38,3.08,1.92,2.7s2.31,.77,3.08,1.93c.77,.77,.77,1.16,1.15,2.31,.38,1.54,1.92,3.08,1.92,3.08l4.23,3.47s2.31,1.16,4.23,1.54c2.69,.39,4.23,1.54,5.39,3.08,1.15,1.54,3.85,3.47,5.77,3.47,1.54,0,5,.77,5,.77l10.78,6.16,5.39-.77,5.77,5.78s3.46,1.16,6.93,2.7c4.23,.77,4.23,6.55,4.23,6.55l.38,22.72v8.47l1.15,6.93,4.23,3.08,4.62,3.08s.77,.77,3.85,3.47c11.16,8.47,9.24,21.95,9.24,21.95l-13.08,118.59-7.7,69.69,1.54-1.16,3.46-10.01,15.78-20.41,24.63-13.48,44.64-6.93,31.94-7.7,76.97-33.5,13.47-58.14-12.7-18.87h0Z"/>
      <path class="cls-9" d="M546.31,262.27l-1.54,1.93-65.42-4.24-27.32-32.34v-3.85s-.38,0-.77,.39l-1.15-.77s-.38-.39-.77-.77c0-.39-.77-.77-.77-.77,0,0-1.15,0-1.54,.39-.38,0-.77,.39-.77,.77-.38,.39-1.54,0-1.92,0-.77-.38-.38-.77-.38-1.16s.38-.77,.77-1.16v-1.16q0-.39,.38-.77c.38,0,1.54-.77,1.92-.77v-1.16s0-.77,.38-1.16c0-.39,.77-.39,1.15-.39,.38,.39,.38-.38,.38-.38,0,0-.38-.39-.77-.39,0-.39-.77-.77-1.15-.77,0-.39-.38,.39-.38,.77-.38,.39-1.15,1.16-1.54,1.16,0,.39-.77,1.16-1.15,1.16-.38,.38-1.92,.77-1.92,.77-.38,0-1.92,.39-2.69,.39-1.15,.39-2.31-.39-2.69-.77-.77,0-1.92-.77-2.31-1.16l-3.08-5.39h-.77c-.38,.39-.77,0-.77-.39,0,0-.38-1.16-.38-1.54l-.38-.39v-1.16q-.38-.39-.77-.39l-.38-.39c0-.39-.38-.77-.38-.77,0-.38-.77-1.16-.77-1.54s-1.54-2.31-1.54-2.31c-.38,0,0,.39-.38,.77h0c-.38-.39-.38-1.16-.38-1.54v-.39l-.38-.39v-.77c.38,0,0-.39,0-.39,.38-.39,0-1.16,0-1.16-.38-.38-.77-.38-.77-.77-.38,0-.38-.39,0-.77v-1.16c.38,0,0-.77,0-.77,0-.39-.38-.77-.77-.77v-.77c0-.39-.77-1.16-1.15-1.16l-1.15-1.16s-.38-.77-.77-1.16c0,0-.38,0-.38,.39,0,0,.38,.38,.38,.77,0,0-.38,.39-.77,.39,0,0-.77-1.16-.77-1.54l-2.69-3.08c-.38-.38-.38-.77-.38-.77,0-.39-.38-.77-.38-.77l-1.54-1.16s.38-.77,.38-.39c.38,0,2.31,1.54,2.31,1.54,0,0,.38,.39,.38,0l-.38-.77c-.38-.39-1.92-2.7-2.31-3.08-.38,0-1.54-2.31-1.54-2.31v-.77c0-.39,.38-.39,.38-.77v-.77c0-.39-.38-.39-.77-.39s-.38,0-.77-.39h0c0-.39-.77-.39-.77,0,0,0,0,.39-.38,.39,0,0-.38,0-.38-.39v-1.93s.38,0,.38-.39c.38,0-.38-.39-.38-.39q-.38-.38-.38-.77v-.77c.38-.39,.77-1.54,1.15-1.54,0,.39,.38,.77,.38,.77,.38,.38,.38,.77,.77,.77,0,.39,.38,.77,.38,.77,.38,.39,.77,.39,.77,.77s0,.39-.38,.39v.77s0,.39,.38,.39h.38c.38-.39,.38-1.16,.38-1.16v-2.31c.38-.38,.77,0,1.15-.38,.38,0,.38-.39,.38-.77v-3.08h0q0-.39-.38-.77s0-.39,.38-.39c0,0,.38,0,.38-.39h0c0-.38-.38-.77-.77-.77,0,0-.38,0-.38-.39,0,0,.38,0,.38-.39h-.38s-.38,.39-.38,0v-.39l.38-.38v-.77c0-.39,.38-.77,0-.77,0-.38-.38-.38-.77,0v.77c0,.39-.38,.39-.38,.39q0,.39-.38,.39c0,.38,0,0,0,0v-.77l-.38-.39h-.38l-.38,.39v-.39h-.38c0,.39-.38,.39-.38,0h-.38c0-.39-.38-.39-.38-.77,0,0,0-.39-.38-.39v-.39h0q0-.39,.38-.39,0,.39,.38,.39h.38c.38,0,.38-.77,.38-.77,0-.38,0-.77-.38-.77h-1.15v.39h-.38v-1.54c-.38,0,0-.38-.38-.38l-.38-.39h0c-.38,0-.38-.39-.38-.39v-1.16h.38v-.39c0-.39,.38,0,.77,0v1.16h.38c.38,0,.38,.39,.77,0h1.15c0-.39-.38-.77-.38-.77q-.38-.39-.77-.77l-.38-.39q-.38-.39-.77-.77s-.38-.39-.38-.77l-.38-.39-.38-.39h-.38q0-.38-.38-.38c-.77-.39-1.54,0-2.31,0-.38-.39-1.15-.77-1.54-1.16,0,0-.38-.39-.77-.39-.38-.38-.77-.38-1.15-.77-.38,0-.77-.39-.77-.77-.38-.39-.38-1.16-.77-1.54s-.77-.39-1.15-.77c-.38-.38-.77-.77-1.15-1.16,0,0-.38-.39-.38-.77s0-.77-.38-1.16c0-.39-.38-.39-.38-.77v-1.16c0-.39-.38-.39-.77-.39,0,0-.38,0-.38-.39v-.38s0-.39-.38-.39v.39c-.38,.38-.38,.77,0,.77,0,.39,.38,.39,.77,.77h.38v.77h-.38v.39s-.38,0-.38,.39c-.38,0,0,.39,0,.39q.38,0,.38,.39s0,.38-.38,.38c0,0,0-.38-.38-.38h-.38q0,.38-.38,.38v-.38s0-.39-.38,0h-.38v.77q0,.39-.38,.39l-.38-.39q0-.39-.38-.39c0-.38-.38-.77,0-.77,0-.39,.77-.39,.77-.77l-.38-.39c-.77-.38-.77,0-.77,.39-.38,.39-.77,.39-.77,0-.38-.77,0-1.54-.38-1.93s0-1.16-.38-1.93q0-.39-.38-.39h-.77c-.38,.39-.77,0-.77-.38s0-.77,.38-.77c0-.39,.38-.39,.38-.77h-.38q-.38,0-.38,.39c-.38,.39-1.15,0-1.15,0-.38-.39-1.15-.77-.77-1.16h.77c.38,0,.38-.39,.77-.39v.39h.77s.38-.39,.77-.39c.77-.39,.38-1.54-.38-2.31-.38-.39-1.15-.77-1.54-.77h-1.54c-.77,0-1.92,0-2.69-.39-.38-.39-.77-1.16-1.54-1.16q0-.38-.38-.38c-.38,0-.77,0-.77,.38,0,0-.77,1.16-.77,.77v-1.16c0-.39-.38-.39-.38,0q-.38,0-.38,.38s0,.39-.38,.39l-.38-.39q0-.38,.38-.77s.38,0,.38-.39h-.38c-.38-.39,0-.39-.38-.77,0-.38-.38-.38-.38-.38v-.39c-.38,0,0-.39-.38-.39-.38-.39-.77,.39-1.15,0v-.39c.38-.39,.77-.39,.77-.77v-.39h0q-.38-.39,0-.77v-.39c.38-.38,.77,0,.77,0,0,0,.38,.39,.38,.77,0,0-.38,.77,0,.77,0,.38,0,.77,.38,.77s.38-.39,.38-.77c.38-.39,0-1.16,0-1.93,0-.39-.38-.77-.77-.77-.38-.39-.77-.77-1.15-1.16-.38-.39-.77-.77-1.15-.77,0-.39-.77-.77-.77-1.16v-.39h.77s.77,0,.38-.39c0-.39-.38-.39-.77-.39-.77-.39-1.54-.39-1.92-.77-.77-.77-2.69-1.93-1.92-3.08,0-.39,0-.77,.38-.77v-.77c0-.39-.38-.39-.38-.39-.38-.39-.38-.77-.77-.77,0-.39-.38-.39-.38-.77,0,0-.38-.39-.77-.39,0-.39-.38-.39-.38-.77-.38-.77-.38-1.16,0-1.93,0-.39,.38-.39,.38-.77l-.77-.77c-.38,0-.38-.38-.38-.77v-.77c-.38-.77-1.54-.77-1.54-1.16l-18.47,.39-2.69-3.85-.38-5.01-3.46-4.62-23.09-2.7-3.08,1.54-12.7-1.16-1.54,4.24-5.39,7.7-1.54,1.16-1.54,4.24-3.85,6.16-1.92,3.47-6.93,10.4-1.54,1.93-.38,3.08,1.92,2.7s2.31,.77,3.08,1.93c.77,.77,.77,1.16,1.15,2.31,.38,1.54,1.92,3.08,1.92,3.08l4.23,3.47s2.31,1.16,4.23,1.54c2.69,.39,4.23,1.54,5.39,3.08,1.15,1.54,3.85,3.47,5.77,3.47,1.54,0,5,.77,5,.77l10.78,6.16,5.39-.77,5.77,5.78s3.46,1.16,6.93,2.7c4.23,.77,4.23,6.55,4.23,6.55l.38,22.72v8.47l1.15,6.93,4.23,3.08,4.62,3.08s.77,.77,3.85,3.47c11.16,8.47,9.24,21.95,9.24,21.95l-13.08,118.59-7.7,69.69,1.54-1.16,3.46-10.01,15.78-20.41,24.63-13.48,44.64-6.93,31.94-7.7,76.97-33.5,13.47-58.14-12.7-18.87h0Z"/>
      <g class="cls-12">
        <path class="cls-4" d="M334.31,367.07l-3.08,.38-5,.77-11.93,1.15-6.93,.38-14.24,1.92-11.54-.38-5.39-1.54-8.47-5.38s-.38,1.54-.38,1.92c.38,0,.38,3.08,0,3.46l-1.15,.77c-.38,0-2.31,1.15-2.69,1.54-.38,.38-.38,1.92-.38,2.31s1.15,5.77,1.15,5.77l-1.15,3.46-3.08,2.31-4.23,.77-2.31,4.23-8.85,8.08-.77,1.54c-.38,.38-.38,1.92,0,2.31,0,0,.77,2.69,.77,3.08,.38,.77-.38,3.08-.38,3.08l-.77,6.54,.77,1.92v3.08l-1.15,3.08,1.54,1.54,3.08-.38,1.15,1.15h3.46l1.15-1.92h1.54l1.15,1.15c.38,0,1.15-1.15,1.15-1.15l8.85-.77,2.31,.77,2.31-.77h15.78l5,3.08,26.55,2.31,10.39-1.92,6.54,9.62h5.77l5.77-3.85,7.7-69.62-20.01,4.23h0Z"/>
        <path class="cls-9" d="M334.31,367.07l-3.08,.38-5,.77-11.93,1.15-6.93,.38-14.24,1.92-11.54-.38-5.39-1.54-8.47-5.38s-.38,1.54-.38,1.92c.38,0,.38,3.08,0,3.46l-1.15,.77c-.38,0-2.31,1.15-2.69,1.54-.38,.38-.38,1.92-.38,2.31s1.15,5.77,1.15,5.77l-1.15,3.46-3.08,2.31-4.23,.77-2.31,4.23-8.85,8.08-.77,1.54c-.38,.38-.38,1.92,0,2.31,0,0,.77,2.69,.77,3.08,.38,.77-.38,3.08-.38,3.08l-.77,6.54,.77,1.92v3.08l-1.15,3.08,1.54,1.54,3.08-.38,1.15,1.15h3.46l1.15-1.92h1.54l1.15,1.15c.38,0,1.15-1.15,1.15-1.15l8.85-.77,2.31,.77,2.31-.77h15.78l5,3.08,26.55,2.31,10.39-1.92,6.54,9.62h5.77l5.77-3.85,7.7-69.62-20.01,4.23h0Z"/>
        <g class="cls-5">
          <path class="cls-2" d="M231.12,416.26l3.84,3.85-2.3,1.15,.38,.77s-.38,.38-.38,.77c-.38,0-.77,.38-.38,.38,0,0,.38,.38,.38,.77l-.38,.38,2.69,1.92s.38,.38,0,.38l-3.07,.77c0,.38-.38,.38-.38,.77,0,0,.38,.38,.38,.77,0,0,0,.38-.38,.77l-1.54,.38v2.31c.38,0,.77,.38,1.15,.38v-.38c.38,.38,1.15,1.15,1.15,1.15,.38,.38,.38,.77,.38,.77,0,.38-.38,.77-.77,.77,0,0-.38-.38-.77-.38h-.38v1.15s.38,0,.38,.38c0,0-.38,.77-.77,.77l-.38,.38s-.38,.38-.38,.77c.38,0,.38,.38,.38,.38,.38,.38,1.15,1.15,1.54,1.15,0,0,.77,.38,.77,.77,.38,0,.77,.38,.77,.77v.77q-.38,0-.77,.38-.38,0-.38,.38c0,.38,.38,1.15,.38,1.15v.77c0,.38-.38,.38-.38,.38-.38,0-.77-.38-1.15-.77-.38,0-.77-.38-1.15,0v.77c0,.38,.38,.38,.38,.38,0,.38-.38,.77-.38,1.15s-.38,1.54-.38,1.54c0,.38-3.45,.38-3.45,.38l-1.15,.77-.38,1.15v1.15s-.77,.38-1.15,.38c0,0-.77,.38-1.15,.38s-.77,0-1.15-.38c-.38,0-1.15-.38-1.15-.38,0,0,.38-.38,.77-.38,0,0,.38,0,0-.38-.38,0-.38-.38-.38-.77,0,0,0-.38-.38-.38-.38-.38-.77-1.15-1.15-1.54v-2.69c0-.38,.38-.38,0-.77,0-.38,0-1.54-.38-1.92,0-.38-3.84-3.85-3.84-3.85-.38-.38-.77-.38-.77-.77,0,0,.38-.38,.38-.77v-2.31c.38,0-.38-.38-.38-.38,0-.38-.77-.77-1.15-.77,0,0-.77,0-.77-.38-.38,0-.77-.77-.77-1.15-.38,0-.77-.77-.77-1.15v-.77c-.38-.38-.77-.77-.77-.38v.38q0,.38,.38,.77s0,.38-.38,.38l-.38-.38c0-.38-.38-.77-.38-1.15,0,0,0-.38-.38-.77v-3.08c-.38-.38-.38-.77-.38-1.15s-.38-.77,0-.77c0-.38,.38-1.15,.38-1.15,0-.38-.38-.77-.77-.77q-.77-.38-1.15-.77c-.38-.38-.77-1.15-1.15-1.54s-1.15-1.15-1.54-1.15c-.77,0-1.15-.77-1.15-1.15s-.77-1.15-.77-1.15c0,0-1.15-.77-1.54-1.15s-2.3-1.54-2.3-1.92c-.38,0-1.15-.77-1.54-.77,0-.38-.38-.77-.77-.77s-1.54-.38-1.92-.77c-.38,0-.38-.38-.77-1.15,0-.38-.77-1.15-1.15-1.15,0-.38-.77-1.15-1.15-1.54-.38,0-.38-.77-.77-.77,0-.38-.38-.38-.38-.38,0-.38,.38-.77,.38-1.15,0,0-1.54-1.54-1.54-1.92l-.38-.38c.77-.77,1.54-1.54,1.54-1.54l2.3-1.92s1.15-1.54,1.54-1.92h3.84l.38,3.08-.77,3.46,1.54,1.15h3.45s.77,2.31,1.15,2.69l1.54,1.54,6.52,.38,1.15,3.46s1.15,.77,1.54,.77c0,.38,2.3,2.69,2.69,2.69l1.15-.38c.38-.38,1.15-3.85,1.15-3.85,0-.38,1.92-3.85,1.92-4.23,.38-.38,2.69-1.54,2.69-1.54l1.15,.38s.38,3.46,0,3.46c0,.38,3.07,1.92,3.45,2.31,.38,0,1.54,3.08,1.54,3.08l1.92,.38h0Zm-30.71,26.53c-.38,0-.77-.38-1.15-.77-.38-.38-.77-.38-1.54-.38-.38,0-1.15,0-1.54-.38-.77,0-1.15-.77-1.15-1.15s0-.77-.38-.77q0-.38-.38-.77-.38,0-.77-.38c-.38,0-.38-.38-.38-.38-.38-.38-.77-.38-.77,0v.77c.38,0,.77,.38,.77,.77s-.38,.38,0,.77h.38c.38,0,.77,.38,.77,.77v.77q.38,.38,.77,.77s.38,.38,.77,.38c0,0,.38,0,.38,.38,.38,0,.38,.38,.77,.77,.77,0,1.15,0,1.54-.38,.77-.38,1.15-.38,1.54,0h1.54s.38,0,.38,.38v.38c0,.38-.77,.38-.77,.77s.38,.38,.77,.38,.38,.38,.77,.38q.38,.38,.77,.38l.38,.38c.38,0,.38-.77,0-.77v-1.15l-.38-.38c0-.38,.38-.77,.38-1.15,0,0,0-.38-.38-.38h-.38q-.38,0-.38-.38c-.38,0-.38-.38-.38-.38-.38-.38,0-.77-.38-1.15q-.38,0-.38-.38c-.38,0-.38-.38-.77-.38s-.38,.38-.38,.77,0,.77-.38,.77v.38h.38c.77,0,.38,.38,0,.77h0Zm-2.69-3.08c-.38,0-.77-.38-.77-.77h1.54v-.38c-.38-.38-.38-.77-.77-.77,0,0-.77-.38-.38-.77,0,0,.38,0,0-.38,0-.38-.38-.38-.77-.38s-.38,.38-.38,.77c-.38,.38-.77,0-1.15,0s-.38,.38-.38,.77c0,0,0,.38,.38,.38v.38q.38,.38,.38,.77l.38,.38q.38,.38,.77,.77s.38,0,.77,.38h.77c0,.38,.38,.38,.77,.38,.38-.38-.38-.77-.77-1.15q-.38,0-.38-.38h0Zm-8.06-3.85h0c-.38,0-.38,.38-.38,.38,0,.38,.38,.38,.77,.77h.38q.38,0,.38-.38c.38,0,.38-.38,0-.38-.38-.38-.77-.77-1.15-.38h0Zm2.3,6.15s-.77,0-.77,.38c0,0,.38,0,.38,.38h.38c.38,0,.77,.38,1.15,.38s.77-.38,.38-.77c-.38,0-.38-.38-.77-.38h-.77Zm-4.99-4.23c.38,.38,.38,.77,.38,1.15q.38,.38,.77,.38c.38-.38,0-.77,0-.77q-.38-.38-.38-.77h-.77Zm11.9,6.54c-.38,0-.38,.77,0,.77l.38,.38c.38,0,.38-.38,.77-.38v-.77h-1.15Zm1.54,2.69l-.38,.38v.38c.38,0,.77-.38,.77-.77,0,0,.38,0,0-.38q-.38,0-.38,.38h0Zm8.44-13.84v1.15h.38v-1.54c-.38,0-.38,.38-.38,.38h0Z"/>
          <path class="cls-7" d="M231.12,416.26l3.84,3.85-2.3,1.15,.38,.77s-.38,.38-.38,.77c-.38,0-.77,.38-.38,.38,0,0,.38,.38,.38,.77l-.38,.38,2.69,1.92s.38,.38,0,.38l-3.07,.77c0,.38-.38,.38-.38,.77,0,0,.38,.38,.38,.77,0,0,0,.38-.38,.77l-1.54,.38v2.31c.38,0,.77,.38,1.15,.38v-.38c.38,.38,1.15,1.15,1.15,1.15,.38,.38,.38,.77,.38,.77,0,.38-.38,.77-.77,.77,0,0-.38-.38-.77-.38h-.38v1.15s.38,0,.38,.38c0,0-.38,.77-.77,.77l-.38,.38s-.38,.38-.38,.77c.38,0,.38,.38,.38,.38,.38,.38,1.15,1.15,1.54,1.15,0,0,.77,.38,.77,.77,.38,0,.77,.38,.77,.77v.77q-.38,0-.77,.38-.38,0-.38,.38c0,.38,.38,1.15,.38,1.15v.77c0,.38-.38,.38-.38,.38-.38,0-.77-.38-1.15-.77-.38,0-.77-.38-1.15,0v.77c0,.38,.38,.38,.38,.38,0,.38-.38,.77-.38,1.15s-.38,1.54-.38,1.54c0,.38-3.45,.38-3.45,.38l-1.15,.77-.38,1.15v1.15s-.77,.38-1.15,.38c0,0-.77,.38-1.15,.38s-.77,0-1.15-.38c-.38,0-1.15-.38-1.15-.38,0,0,.38-.38,.77-.38,0,0,.38,0,0-.38-.38,0-.38-.38-.38-.77,0,0,0-.38-.38-.38-.38-.38-.77-1.15-1.15-1.54v-2.69c0-.38,.38-.38,0-.77,0-.38,0-1.54-.38-1.92,0-.38-3.84-3.85-3.84-3.85-.38-.38-.77-.38-.77-.77,0,0,.38-.38,.38-.77v-2.31c.38,0-.38-.38-.38-.38,0-.38-.77-.77-1.15-.77,0,0-.77,0-.77-.38-.38,0-.77-.77-.77-1.15-.38,0-.77-.77-.77-1.15v-.77c-.38-.38-.77-.77-.77-.38v.38q0,.38,.38,.77s0,.38-.38,.38l-.38-.38c0-.38-.38-.77-.38-1.15,0,0,0-.38-.38-.77v-3.08c-.38-.38-.38-.77-.38-1.15s-.38-.77,0-.77c0-.38,.38-1.15,.38-1.15,0-.38-.38-.77-.77-.77q-.77-.38-1.15-.77c-.38-.38-.77-1.15-1.15-1.54s-1.15-1.15-1.54-1.15c-.77,0-1.15-.77-1.15-1.15s-.77-1.15-.77-1.15c0,0-1.15-.77-1.54-1.15s-2.3-1.54-2.3-1.92c-.38,0-1.15-.77-1.54-.77,0-.38-.38-.77-.77-.77s-1.54-.38-1.92-.77c-.38,0-.38-.38-.77-1.15,0-.38-.77-1.15-1.15-1.15,0-.38-.77-1.15-1.15-1.54-.38,0-.38-.77-.77-.77,0-.38-.38-.38-.38-.38,0-.38,.38-.77,.38-1.15,0,0-1.54-1.54-1.54-1.92l-.38-.38c.77-.77,1.54-1.54,1.54-1.54l2.3-1.92s1.15-1.54,1.54-1.92h3.84l.38,3.08-.77,3.46,1.54,1.15h3.45s.77,2.31,1.15,2.69l1.54,1.54,6.52,.38,1.15,3.46s1.15,.77,1.54,.77c0,.38,2.3,2.69,2.69,2.69l1.15-.38c.38-.38,1.15-3.85,1.15-3.85,0-.38,1.92-3.85,1.92-4.23,.38-.38,2.69-1.54,2.69-1.54l1.15,.38s.38,3.46,0,3.46c0,.38,3.07,1.92,3.45,2.31,.38,0,1.54,3.08,1.54,3.08l1.92,.38h0Zm-30.71,26.53c-.38,0-.77-.38-1.15-.77-.38-.38-.77-.38-1.54-.38-.38,0-1.15,0-1.54-.38-.77,0-1.15-.77-1.15-1.15s0-.77-.38-.77q0-.38-.38-.77-.38,0-.77-.38c-.38,0-.38-.38-.38-.38-.38-.38-.77-.38-.77,0v.77c.38,0,.77,.38,.77,.77s-.38,.38,0,.77h.38c.38,0,.77,.38,.77,.77v.77q.38,.38,.77,.77s.38,.38,.77,.38c0,0,.38,0,.38,.38,.38,0,.38,.38,.77,.77,.77,0,1.15,0,1.54-.38,.77-.38,1.15-.38,1.54,0h1.54s.38,0,.38,.38v.38c0,.38-.77,.38-.77,.77s.38,.38,.77,.38,.38,.38,.77,.38q.38,.38,.77,.38l.38,.38c.38,0,.38-.77,0-.77v-1.15l-.38-.38c0-.38,.38-.77,.38-1.15,0,0,0-.38-.38-.38h-.38q-.38,0-.38-.38c-.38,0-.38-.38-.38-.38-.38-.38,0-.77-.38-1.15q-.38,0-.38-.38c-.38,0-.38-.38-.77-.38s-.38,.38-.38,.77,0,.77-.38,.77v.38h.38c.77,0,.38,.38,0,.77h0Zm-2.69-3.08c-.38,0-.77-.38-.77-.77h1.54v-.38c-.38-.38-.38-.77-.77-.77,0,0-.77-.38-.38-.77,0,0,.38,0,0-.38,0-.38-.38-.38-.77-.38s-.38,.38-.38,.77c-.38,.38-.77,0-1.15,0s-.38,.38-.38,.77c0,0,0,.38,.38,.38v.38q.38,.38,.38,.77l.38,.38q.38,.38,.77,.77s.38,0,.77,.38h.77c0,.38,.38,.38,.77,.38,.38-.38-.38-.77-.77-1.15q-.38,0-.38-.38h0Zm-8.06-3.85h0c-.38,0-.38,.38-.38,.38,0,.38,.38,.38,.77,.77h.38q.38,0,.38-.38c.38,0,.38-.38,0-.38-.38-.38-.77-.77-1.15-.38h0Zm2.3,6.15s-.77,0-.77,.38c0,0,.38,0,.38,.38h.38c.38,0,.77,.38,1.15,.38s.77-.38,.38-.77c-.38,0-.38-.38-.77-.38h-.77Zm-4.99-4.23c.38,.38,.38,.77,.38,1.15q.38,.38,.77,.38c.38-.38,0-.77,0-.77q-.38-.38-.38-.77h-.77Zm11.9,6.54c-.38,0-.38,.77,0,.77l.38,.38c.38,0,.38-.38,.77-.38v-.77h-1.15Zm1.54,2.69l-.38,.38v.38c.38,0,.77-.38,.77-.77,0,0,.38,0,0-.38q-.38,0-.38,.38h0Zm8.44-13.84v1.15h.38v-1.54c-.38,0-.38,.38-.38,.38h0Z"/>
          <g class="cls-16">
            <path class="cls-2" d="M191.91,189.17l1.93-1.54,1.93-1.54,3.85-.39s1.54,.77,1.54,0c0-.39,.39-1.54,0-1.93s-1.54-2.31-1.54-2.7l.77-2.7,1.16-.39c.39,.39,2.7,1.16,3.08,1.16s1.54,.39,1.93,0v-1.93c0-.39-.77-3.09-.77-3.09,0,0,.77-2.31,1.16-2.7,.39,0,.77-1.16,1.16-1.16h1.54c.39,0,1.93,0,1.93-.39,.39,0,.77-.77,1.16-3.08l2.31-2.31,8.47-6.94,5.39-2.31,.77-1.54,2.31-.39,1.54-.77s.77-1.16,.77-1.54l1.16-2.31c0-.39,1.54-1.93,1.54-1.93l7.7-4.24,6.16-2.7s1.93-.39,3.85,1.54c2.31,2.31,3.85,3.86,3.85,3.86,.39,0,1.54,1.16,1.93,1.16,.77,.39,2.7,.39,3.08,.39s2.31,.39,2.31,.39c.39,0,1.54-.39,1.93-1.16,.39-.39,1.54-1.93,1.93-2.7,.39-.77,.77-1.54,.77-2.7,0-.77,.77-3.86,1.16-4.24,.39-.39,.39-.77,3.08-1.54v-1.93l-7.32-5.4-8.09-.77s-2.7-1.93-3.47-2.7c-.77-1.16-2.7-6.56-2.7-6.56l-2.31-4.24-2.7-4.63s-2.31,0-2.31,.39c-.39,.39-3.47,2.7-3.47,2.7l-3.08-.39-3.08-1.93-3.08,.39h-1.93l-1.16-1.54v-2.31l-1.16-2.7-5.78,1.93s-3.08,1.16-4.62-1.54c-1.93-2.7-3.47-4.24-3.47-4.24l-3.08-.77-10.4-2.31s-4.24,1.93-4.24,1.54c-.39,0-8.09-3.08-8.09-3.08l-3.85,.77-12.71,2.7-5.01-1.93-1.54-.39-8.47,3.08-10.4,6.17h-2.7l-5.39,1.93-1.16,.39-1.54,.77-2.7,1.16s-.77,0-1.16,.39c-.39,0-4.24,3.86-4.24,3.86l.39,.77,11.17,2.7,1.54,2.31,2.31,1.16,.77,1.54,3.47,2.31,1.54,6.56s0,.77,.39,3.09c.39,2.7,.77,3.47,3.85,5.78,4.24,1.54,2.7,4.63,2.7,4.63l-4.62,3.47-1.93,5.78-2.31,3.47,.39,2.7s-.77,2.7-1.16,3.08c0,.39-.77,1.16-.77,1.93,0,.39,1.16,1.93,1.54,1.54,.77,0,2.31-.39,2.7-.39,0,0,.39,1.16,.39,1.54l-1.93,11.18,1.16,4.24-.77,10.8s2.31,2.7,2.7,2.7c.77-.39,3.47-1.16,3.47-1.16l5.39-1.93h6.55s3.08-3.47,3.47-3.86l1.93-.77,6.16-.39,8.47,2.31h0l1.54-1.54h3.08Z"/>
            <path class="cls-9" d="M191.91,189.17l1.93-1.54,1.93-1.54,3.85-.39s1.54,.77,1.54,0c0-.39,.39-1.54,0-1.93s-1.54-2.31-1.54-2.7l.77-2.7,1.16-.39c.39,.39,2.7,1.16,3.08,1.16s1.54,.39,1.93,0v-1.93c0-.39-.77-3.09-.77-3.09,0,0,.77-2.31,1.16-2.7,.39,0,.77-1.16,1.16-1.16h1.54c.39,0,1.93,0,1.93-.39,.39,0,.77-.77,1.16-3.08l2.31-2.31,8.47-6.94,5.39-2.31,.77-1.54,2.31-.39,1.54-.77s.77-1.16,.77-1.54l1.16-2.31c0-.39,1.54-1.93,1.54-1.93l7.7-4.24,6.16-2.7s1.93-.39,3.85,1.54c2.31,2.31,3.85,3.86,3.85,3.86,.39,0,1.54,1.16,1.93,1.16,.77,.39,2.7,.39,3.08,.39s2.31,.39,2.31,.39c.39,0,1.54-.39,1.93-1.16,.39-.39,1.54-1.93,1.93-2.7,.39-.77,.77-1.54,.77-2.7,0-.77,.77-3.86,1.16-4.24,.39-.39,.39-.77,3.08-1.54v-1.93l-7.32-5.4-8.09-.77s-2.7-1.93-3.47-2.7c-.77-1.16-2.7-6.56-2.7-6.56l-2.31-4.24-2.7-4.63s-2.31,0-2.31,.39c-.39,.39-3.47,2.7-3.47,2.7l-3.08-.39-3.08-1.93-3.08,.39h-1.93l-1.16-1.54v-2.31l-1.16-2.7-5.78,1.93s-3.08,1.16-4.62-1.54c-1.93-2.7-3.47-4.24-3.47-4.24l-3.08-.77-10.4-2.31s-4.24,1.93-4.24,1.54c-.39,0-8.09-3.08-8.09-3.08l-3.85,.77-12.71,2.7-5.01-1.93-1.54-.39-8.47,3.08-10.4,6.17h-2.7l-5.39,1.93-1.16,.39-1.54,.77-2.7,1.16s-.77,0-1.16,.39c-.39,0-4.24,3.86-4.24,3.86l.39,.77,11.17,2.7,1.54,2.31,2.31,1.16,.77,1.54,3.47,2.31,1.54,6.56s0,.77,.39,3.09c.39,2.7,.77,3.47,3.85,5.78,4.24,1.54,2.7,4.63,2.7,4.63l-4.62,3.47-1.93,5.78-2.31,3.47,.39,2.7s-.77,2.7-1.16,3.08c0,.39-.77,1.16-.77,1.93,0,.39,1.16,1.93,1.54,1.54,.77,0,2.31-.39,2.7-.39,0,0,.39,1.16,.39,1.54l-1.93,11.18,1.16,4.24-.77,10.8s2.31,2.7,2.7,2.7c.77-.39,3.47-1.16,3.47-1.16l5.39-1.93h6.55s3.08-3.47,3.47-3.86l1.93-.77,6.16-.39,8.47,2.31h0l1.54-1.54h3.08Z"/>
            <g class="cls-13">
              <path class="cls-2" d="M185.53,95.54l3.85-.77s7.69,3.08,8.08,3.08c0,.39,4.23-1.54,4.23-1.54l10.39,2.31,3.08,.77s1.54,1.54,3.46,4.24c1.54,2.7,4.62,1.54,4.62,1.54l5.77-1.93,1.15,2.7v2.31l1.15,1.54h1.92l3.08-.39,3.08,1.93,3.08,.39s3.08-2.31,3.46-2.7c0-.39,2.31-.39,2.31-.39l2.69,4.62,2.31,4.24s1.92,5.39,2.69,6.55c.77,.77,3.46,2.7,3.46,2.7l8.08,.77,7.31,5.39v1.93s2.31,1.16,2.69,1.16,1.92-.39,1.92-.39l.77-1.16-1.92-2.7,.38-3.08,1.54-1.93,6.93-10.4,1.92-3.47,3.85-6.16,1.54-4.24,1.54-1.16,5.39-7.7,1.54-4.24-29.63-2.7L208.23,31.63l-15.77-7.32-24.62-16.94L139.36,.44l-5.39,4.62-24.62,6.16-3.46,9.24v5.78s3.85,3.08,3.85,3.47c0,0,1.15,2.7,1.15,3.08,.38,0,2.31,2.7,2.31,2.7l5.39,.39,10.39-1.16c.38,0,5.39-.39,5.39-.39l4.23,.39,10.39,2.31,5,.39,3.85,3.08,3.46,1.54h17.31l5.77,5.01,7.69,.77s2.69,1.54,3.08,1.93c0,.39,1.92,5.01,2.31,5.01,0,.39,5.77,4.62,5.77,5.01v1.16l-3.46,2.7-10.39,6.55-10.77,6.16s-4.62,3.08-4.62,3.47c0,0-1.15,3.08-1.15,3.47,.38,0,0,3.85,0,3.85v4.24c-.38,.77-5,5.01-5,5.01l5,1.93,12.7-2.7h0Z"/>
              <path class="cls-9" d="M185.53,95.54l3.85-.77s7.69,3.08,8.08,3.08c0,.39,4.23-1.54,4.23-1.54l10.39,2.31,3.08,.77s1.54,1.54,3.46,4.24c1.54,2.7,4.62,1.54,4.62,1.54l5.77-1.93,1.15,2.7v2.31l1.15,1.54h1.92l3.08-.39,3.08,1.93,3.08,.39s3.08-2.31,3.46-2.7c0-.39,2.31-.39,2.31-.39l2.69,4.62,2.31,4.24s1.92,5.39,2.69,6.55c.77,.77,3.46,2.7,3.46,2.7l8.08,.77,7.31,5.39v1.93s2.31,1.16,2.69,1.16,1.92-.39,1.92-.39l.77-1.16-1.92-2.7,.38-3.08,1.54-1.93,6.93-10.4,1.92-3.47,3.85-6.16,1.54-4.24,1.54-1.16,5.39-7.7,1.54-4.24-29.63-2.7L208.23,31.63l-15.77-7.32-24.62-16.94L139.36,.44l-5.39,4.62-24.62,6.16-3.46,9.24v5.78s3.85,3.08,3.85,3.47c0,0,1.15,2.7,1.15,3.08,.38,0,2.31,2.7,2.31,2.7l5.39,.39,10.39-1.16c.38,0,5.39-.39,5.39-.39l4.23,.39,10.39,2.31,5,.39,3.85,3.08,3.46,1.54h17.31l5.77,5.01,7.69,.77s2.69,1.54,3.08,1.93c0,.39,1.92,5.01,2.31,5.01,0,.39,5.77,4.62,5.77,5.01v1.16l-3.46,2.7-10.39,6.55-10.77,6.16s-4.62,3.08-4.62,3.47c0,0-1.15,3.08-1.15,3.47,.38,0,0,3.85,0,3.85v4.24c-.38,.77-5,5.01-5,5.01l5,1.93,12.7-2.7h0Z"/>
            </g>
          </g>
        </g>
      </g>
    </g>
  </g>
  <g class="cls-18">
    <path class="cls-4" d="M189.15,401.11s-.77,.77-1.54,1.54c-.38-.77-1.54-3.08-1.54-3.08h-.38l-.38-.77c.38-.38,.38-.77,0-1.15l-1.15-1.54v-3.08c-.38,0-.77-.38-.77-.38v-.77s0-.77-.38-.77c0,0-.77-.77-.77-1.15,0,0-.38-.77-.77-.77h-1.54c-.38,0-1.92-3.08-1.92-3.46v-1.15c.38-.38,.77-1.92,.77-1.92l-.77-1.15c-.38-.38-1.15-.77-1.54-1.15,0-.38-.77-1.15-.38-1.54,0-.77,0-1.54,.38-1.92,.38,0,.38-1.15,.38-1.54,0,0-1.15-.38-1.54-.77-.38,0-1.54-1.54-1.54-1.92-.38-.38,0-1.54,0-2.31,0-.38-.77-1.54-.77-1.54-.38-.38-1.54-1.15-1.54-1.15,0-.38-.38-1.15-.38-1.15v-2.31c.38,0,.38-.38,.38-.77-.38-.38-.77-1.15-1.15-1.15-.77-.38-1.92-.77-1.92-.77-.38-.38-1.15-.38-1.15-1.15v-2.31c0-.38-.38-1.92-.38-1.92-.38-.38-.77-1.54-1.15-1.54,0,0-.38,0-1.15,.38h-1.15c-.77,0-.77-.38-.77-.77-.38-.38,0-.77-.77-1.15q-.38,0-.38-.38c-.38-.38,0-.77-.77-1.15-.38,0-.77-.38-.38-.77,.38-.38,.77-.77,0-1.15-.77-.38-2.31-1.54-2.69-1.54,0,0-.38-.77-.77-1.15-.38,0-1.54-1.15-1.92-1.15s-1.15,0-1.54-.77c0-.38-.77-1.92-.77-1.92h-1.92c-.38,0-1.92-.77-1.92-.77-.38-.38-1.15-.38-1.92-.38-.38,0-.77-.38-.38-.77h1.54c0,.38,1.15,.77,1.15,.77,.38,.38,1.15,.38,.77,0-.38-.77-1.15-1.54-1.15-1.54-.38,0-.77-.38-1.54-.38-.38,.38-1.15,.77-1.15,.77-.38-.38-.77-.77-1.15-.77-.77-.38-.77-.77-.77-.38v.77c-.38,0-.77-.38-1.54-.38-.38-.38-2.69-2.31-3.07-2.69-.38-.38-1.92-1.92-1.92-2.31-.38-.38-.38-.77-.38-1.15-.38,0-.77-.77-.77-1.15-.38-.38-.38-.77-.38-.77,0,0-.38-.77-.77-.77-.38-.38-.77-.77-.77-.77,0,0-.77-1.54-.77-1.92s-.38-1.54-.38-1.92c0,0-.38-1.15-.77-1.15s-.38,.38-.38,.38c.38,.38,0,1.15,0,.77-.38-.38-.77-.77-.77-1.15s0-1.15-.38-1.54l-.77-.77q-.38-.38,0-.77c0-.38-.38-.77-.77-1.15-.77,0-2.31-1.15-2.31-1.54v-1.92c-.38-.38-1.54-1.54-1.92-1.92,0,0-.38-1.15-.38-1.54,.38-.38,.38-1.15,0-1.54-.38-.77-1.15-1.54-1.54-2.31,0-.38-.38-1.15,.38-1.54,.38,0,1.15-.77,1.54-1.15,0-.38,.38-1.15,0-1.54,0-.77-.38-1.54-.77-1.92,0-.38-.38-.38-.77-1.15-.38-.77-.38-1.92-.38-2.31v-2.31s-.38-.77-1.15-1.92-1.15-2.31-1.54-2.69c-.38-.38-.38-.77-.38-.77,.38,0,.77,.38,1.15,.38,0,.38,.38,.38,.38,0s-.38-1.54-.38-1.54c0,0-.38-.77-.77-.38,0,0,0,.77-.38,.77,0,.38-.38,0-.38,0,0-.38,0-1.54-.38-1.54v-1.15q.38-.38,.38,0c.38,0,.38,.77,.38,.77h.77c.38,.38,.38,0,.38-.38s.38-.77,.38-1.15c.38,0,.38-.38,.77-.38,0-.38,0-1.15-.38-1.15h-.38v-.38c0-.38,0-.77,.38-.77,0-.38,.38-1.15,.38-1.54s0-.38,.38-.77c.38-.38,1.15-1.54,1.15-1.92s.38-1.15,.38-1.15c0-.38,0-.77,.38-.77,0-.38,.38,0,.38-.38v-1.15h-.77v1.15l-.77-.77v-1.92c0-.38,.38-.77,0-.77v-2.69c0-.38-1.92-4.23-1.92-4.23l.38-.38q-.38-.38-.77-.77c-.38-.38-1.54-1.92-1.54-2.31,0,0-.77-1.15-1.15-1.54,0-.38-.38-.77-.38-1.15l.77,.38c0,.38,1.15,1.92,1.15,1.92,.38,.38,.77,.38,1.15,0l-.38-.77c-.38-.38-.38-1.92-1.54-2.31-.77-.38-1.54-.77-1.92-.77-.38-.38-1.15-.77-.77-1.15,.38-.38,.77-1.54,.38-1.92v-1.54c-.38,0-.38-.38-.38-.38v-.38c0-.38-.77-.77-1.15-1.15,0,0-1.15-1.92-1.15-2.31s-.38-2.31-.38-2.31c0-.38-.38-1.15-.38-1.54h0l3.84-.38,2.69-1.15,2.69,4.62,2.31,1.92,.38,1.54,1.92,1.54h6.15l1.15,2.69,9.99-2.69,1.15,1.15,1.15,2.69-.77,2.69-1.92,2.31,1.54,1.54,2.69,1.54,1.15,1.92v5l1.54,1.15h1.54l6.92-3.46,4.61,2.31,1.92-1.54,1.54-3.08,7.3-5.39,5.77-5.39,5.77-3.08v-1.54l-5-2.69-.77-1.15,1.54-1.54,5.77-1.92,5.77-3.46,1.15-2.69-1.15-4.62,.38-1.54,2.69-.38,1.54,.38,2.31,.38-.77,3.85,4.61,5.39,1.15,3.46s0,3.46,.38,3.85c0,.38,.77,2.69,.77,2.69,0,0,1.92,5,2.31,5.39,0,0,1.15,2.69,1.54,3.08l2.69,1.15,6.92,.77s4.23,.38,4.61,.38c.38,.38,1.92,1.92,1.92,1.92,0,.38,0,2.31-.38,2.69-.38,.77-.38,3.08-.38,3.46,0,.77,1.92,2.69,2.31,2.69,.77,.38,2.31,.77,2.31,.77l1.92-1.15,3.07,.38,3.84,1.15v10.77l.77,5s-2.31,4.23-2.31,4.62v8.46l-1.15,2.31,1.15,2.31,2.31,3.46c0,.38,2.69,4.62,3.07,5l.38,2.31-1.54,.38-5.38,3.08-5-1.15-3.46,1.54h-3.46l-3.46,3.46s-3.84,.77-3.84,1.15c-.38,0-6.53,5.77-6.92,6.15-.38,0-1.54,1.92-3.46,2.31-1.54,.38-3.07-.38-3.07-.38l-3.84-7.69s-.38-.38-.77-1.15c-.77-.77-2.31,0-2.69,0s-3.07,1.54-3.07,1.54h-4.61s-1.54,.77-1.92,1.15c-.38,0-1.92-1.15-1.92-1.15-.38-.38,0-.38-1.54-2.69-1.15-2.31-1.92-1.54-2.31-1.92-.77,0-1.92,.77-1.92,1.15-.38,.38-.77,1.92-.38,2.31,0,.38,.38,3.85,.38,4.62,0,.38-3.07,6.16-3.07,6.16-.38,.38-6.53,1.92-6.53,1.92,0,.38-1.92,1.54-2.31,1.92-.77,.77,0,1.92,0,2.31s1.92,1.15,2.31,1.15c.77,.38,1.15,.77,1.15,1.15,.38,.38,0,3.85,0,4.23,0,.77,.38,2.69,.77,3.08,0,.77-.38,2.31-.38,3.46-.38,.77,1.15,1.15,1.92,1.54,.38,.38,2.31,3.08,3.46,3.85,.77,1.15,1.92,1.54,2.69,1.15,.38,0,1.92-.77,2.31-1.54,.77-.38,1.15-3.46,1.15-3.85,.38-.77,1.15-2.69,1.15-3.08l1.92-3.08h4.23l1.15-.77s1.54-.77,1.92-.77,.77,.77,.77,.77c0,0,1.15,1.15,1.15,1.54l-.38,3.08c0,.38-.38,2.31-.38,2.69s1.54,3.85,1.54,3.85c0,.38-.38,1.92-.38,2.69-.38,.38-1.54,1.92-2.31,2.69-1.15,.38-2.31,0-2.69,0h-3.07c-.38,0-1.54,1.15-1.92,1.54-.38,.38-1.54,.38-1.92,.38l-1.54-1.15s-.38,4.23-.38,4.62c0,0,.38,3.85,.38,4.62,0,.38,1.15,1.92,1.54,1.92,0,0,2.31,.38,2.31,.77h3.46c.38,0,1.92,1.15,1.92,1.54s1.15,3.46,1.54,3.46c0,.38,.77,3.46,.77,3.85s-1.15,3.85-1.15,4.23l-1.54,1.92-2.31,1.92h0ZM111.51,251.09c.38,.38,.38,.77,.77,1.15v1.54h.77c.38-.38,0-1.15,0-1.92,0-.38,0-.77-.38-.77v-1.15c-.38-.38-.38,0-.77,.38,0,0-.38,.38-.38,.77h0Zm1.54,4.23c0,.38,.77,1.54,1.54,1.54,.38,0,0-.77,0-.77-.38-.38-.38-.77-.77-.77v-.38c-.38-.38-.77,0-.77,.38h0Zm2.31,6.54s0,1.15,.38,1.15c.77,.38,.77-.38,.38-1.15,0,0-.38-.38-.77,0h0Zm3.84,13.46c.38,0,1.15,.38,1.15,0l-.38-.77-.38-.38,.77-.77v-.38q0-.38-.38-.38s0,.38-.38,.77c0,0-.38,.38-.77,1.15,0,.38,.38,.77,.38,.77h0Zm-1.92,16.16c0,.38,.38,1.15,.38,1.54,0,0,.38,.77,.77,.38,.38,0,.38-.77,0-.77v-.77l-.38-.38c0-.38-.77-.77-.77,0h0Zm2.31,4.62v1.15c0,.38,.38,.38,.77,.77,0,0,.38,.38,.38,0,0,0,0-.38-.38-.38v-1.15c.38,0,.38-.38,0-.38,0-.38-.38-.38-.38-.38-.38,0,0,0-.38,.38h0Zm30.37,52.7h-.77s-.38,0-.38,.38,.38,.38,.77,.38h.38c.38-.38,.38-.77,0-.77h0Z"/>
    <path class="cls-8" d="M189.15,401.11s-.77,.77-1.54,1.54c-.38-.77-1.54-3.08-1.54-3.08h-.38l-.38-.77c.38-.38,.38-.77,0-1.15l-1.15-1.54v-3.08c-.38,0-.77-.38-.77-.38v-.77s0-.77-.38-.77c0,0-.77-.77-.77-1.15,0,0-.38-.77-.77-.77h-1.54c-.38,0-1.92-3.08-1.92-3.46v-1.15c.38-.38,.77-1.92,.77-1.92l-.77-1.15c-.38-.38-1.15-.77-1.54-1.15,0-.38-.77-1.15-.38-1.54,0-.77,0-1.54,.38-1.92,.38,0,.38-1.15,.38-1.54,0,0-1.15-.38-1.54-.77-.38,0-1.54-1.54-1.54-1.92-.38-.38,0-1.54,0-2.31,0-.38-.77-1.54-.77-1.54-.38-.38-1.54-1.15-1.54-1.15,0-.38-.38-1.15-.38-1.15v-2.31c.38,0,.38-.38,.38-.77-.38-.38-.77-1.15-1.15-1.15-.77-.38-1.92-.77-1.92-.77-.38-.38-1.15-.38-1.15-1.15v-2.31c0-.38-.38-1.92-.38-1.92-.38-.38-.77-1.54-1.15-1.54,0,0-.38,0-1.15,.38h-1.15c-.77,0-.77-.38-.77-.77-.38-.38,0-.77-.77-1.15q-.38,0-.38-.38c-.38-.38,0-.77-.77-1.15-.38,0-.77-.38-.38-.77,.38-.38,.77-.77,0-1.15-.77-.38-2.31-1.54-2.69-1.54,0,0-.38-.77-.77-1.15-.38,0-1.54-1.15-1.92-1.15s-1.15,0-1.54-.77c0-.38-.77-1.92-.77-1.92h-1.92c-.38,0-1.92-.77-1.92-.77-.38-.38-1.15-.38-1.92-.38-.38,0-.77-.38-.38-.77h1.54c0,.38,1.15,.77,1.15,.77,.38,.38,1.15,.38,.77,0-.38-.77-1.15-1.54-1.15-1.54-.38,0-.77-.38-1.54-.38-.38,.38-1.15,.77-1.15,.77-.38-.38-.77-.77-1.15-.77-.77-.38-.77-.77-.77-.38v.77c-.38,0-.77-.38-1.54-.38-.38-.38-2.69-2.31-3.07-2.69-.38-.38-1.92-1.92-1.92-2.31-.38-.38-.38-.77-.38-1.15-.38,0-.77-.77-.77-1.15-.38-.38-.38-.77-.38-.77,0,0-.38-.77-.77-.77-.38-.38-.77-.77-.77-.77,0,0-.77-1.54-.77-1.92s-.38-1.54-.38-1.92c0,0-.38-1.15-.77-1.15s-.38,.38-.38,.38c.38,.38,0,1.15,0,.77-.38-.38-.77-.77-.77-1.15s0-1.15-.38-1.54l-.77-.77q-.38-.38,0-.77c0-.38-.38-.77-.77-1.15-.77,0-2.31-1.15-2.31-1.54v-1.92c-.38-.38-1.54-1.54-1.92-1.92,0,0-.38-1.15-.38-1.54,.38-.38,.38-1.15,0-1.54-.38-.77-1.15-1.54-1.54-2.31,0-.38-.38-1.15,.38-1.54,.38,0,1.15-.77,1.54-1.15,0-.38,.38-1.15,0-1.54,0-.77-.38-1.54-.77-1.92,0-.38-.38-.38-.77-1.15-.38-.77-.38-1.92-.38-2.31v-2.31s-.38-.77-1.15-1.92-1.15-2.31-1.54-2.69c-.38-.38-.38-.77-.38-.77,.38,0,.77,.38,1.15,.38,0,.38,.38,.38,.38,0s-.38-1.54-.38-1.54c0,0-.38-.77-.77-.38,0,0,0,.77-.38,.77,0,.38-.38,0-.38,0,0-.38,0-1.54-.38-1.54v-1.15q.38-.38,.38,0c.38,0,.38,.77,.38,.77h.77c.38,.38,.38,0,.38-.38s.38-.77,.38-1.15c.38,0,.38-.38,.77-.38,0-.38,0-1.15-.38-1.15h-.38v-.38c0-.38,0-.77,.38-.77,0-.38,.38-1.15,.38-1.54s0-.38,.38-.77c.38-.38,1.15-1.54,1.15-1.92s.38-1.15,.38-1.15c0-.38,0-.77,.38-.77,0-.38,.38,0,.38-.38v-1.15h-.77v1.15l-.77-.77v-1.92c0-.38,.38-.77,0-.77v-2.69c0-.38-1.92-4.23-1.92-4.23l.38-.38q-.38-.38-.77-.77c-.38-.38-1.54-1.92-1.54-2.31,0,0-.77-1.15-1.15-1.54,0-.38-.38-.77-.38-1.15l.77,.38c0,.38,1.15,1.92,1.15,1.92,.38,.38,.77,.38,1.15,0l-.38-.77c-.38-.38-.38-1.92-1.54-2.31-.77-.38-1.54-.77-1.92-.77-.38-.38-1.15-.77-.77-1.15,.38-.38,.77-1.54,.38-1.92v-1.54c-.38,0-.38-.38-.38-.38v-.38c0-.38-.77-.77-1.15-1.15,0,0-1.15-1.92-1.15-2.31s-.38-2.31-.38-2.31c0-.38-.38-1.15-.38-1.54h0l3.84-.38,2.69-1.15,2.69,4.62,2.31,1.92,.38,1.54,1.92,1.54h6.15l1.15,2.69,9.99-2.69,1.15,1.15,1.15,2.69-.77,2.69-1.92,2.31,1.54,1.54,2.69,1.54,1.15,1.92v5l1.54,1.15h1.54l6.92-3.46,4.61,2.31,1.92-1.54,1.54-3.08,7.3-5.39,5.77-5.39,5.77-3.08v-1.54l-5-2.69-.77-1.15,1.54-1.54,5.77-1.92,5.77-3.46,1.15-2.69-1.15-4.62,.38-1.54,2.69-.38,1.54,.38,2.31,.38-.77,3.85,4.61,5.39,1.15,3.46s0,3.46,.38,3.85c0,.38,.77,2.69,.77,2.69,0,0,1.92,5,2.31,5.39,0,0,1.15,2.69,1.54,3.08l2.69,1.15,6.92,.77s4.23,.38,4.61,.38c.38,.38,1.92,1.92,1.92,1.92,0,.38,0,2.31-.38,2.69-.38,.77-.38,3.08-.38,3.46,0,.77,1.92,2.69,2.31,2.69,.77,.38,2.31,.77,2.31,.77l1.92-1.15,3.07,.38,3.84,1.15v10.77l.77,5s-2.31,4.23-2.31,4.62v8.46l-1.15,2.31,1.15,2.31,2.31,3.46c0,.38,2.69,4.62,3.07,5l.38,2.31-1.54,.38-5.38,3.08-5-1.15-3.46,1.54h-3.46l-3.46,3.46s-3.84,.77-3.84,1.15c-.38,0-6.53,5.77-6.92,6.15-.38,0-1.54,1.92-3.46,2.31-1.54,.38-3.07-.38-3.07-.38l-3.84-7.69s-.38-.38-.77-1.15c-.77-.77-2.31,0-2.69,0s-3.07,1.54-3.07,1.54h-4.61s-1.54,.77-1.92,1.15c-.38,0-1.92-1.15-1.92-1.15-.38-.38,0-.38-1.54-2.69-1.15-2.31-1.92-1.54-2.31-1.92-.77,0-1.92,.77-1.92,1.15-.38,.38-.77,1.92-.38,2.31,0,.38,.38,3.85,.38,4.62,0,.38-3.07,6.16-3.07,6.16-.38,.38-6.53,1.92-6.53,1.92,0,.38-1.92,1.54-2.31,1.92-.77,.77,0,1.92,0,2.31s1.92,1.15,2.31,1.15c.77,.38,1.15,.77,1.15,1.15,.38,.38,0,3.85,0,4.23,0,.77,.38,2.69,.77,3.08,0,.77-.38,2.31-.38,3.46-.38,.77,1.15,1.15,1.92,1.54,.38,.38,2.31,3.08,3.46,3.85,.77,1.15,1.92,1.54,2.69,1.15,.38,0,1.92-.77,2.31-1.54,.77-.38,1.15-3.46,1.15-3.85,.38-.77,1.15-2.69,1.15-3.08l1.92-3.08h4.23l1.15-.77s1.54-.77,1.92-.77,.77,.77,.77,.77c0,0,1.15,1.15,1.15,1.54l-.38,3.08c0,.38-.38,2.31-.38,2.69s1.54,3.85,1.54,3.85c0,.38-.38,1.92-.38,2.69-.38,.38-1.54,1.92-2.31,2.69-1.15,.38-2.31,0-2.69,0h-3.07c-.38,0-1.54,1.15-1.92,1.54-.38,.38-1.54,.38-1.92,.38l-1.54-1.15s-.38,4.23-.38,4.62c0,0,.38,3.85,.38,4.62,0,.38,1.15,1.92,1.54,1.92,0,0,2.31,.38,2.31,.77h3.46c.38,0,1.92,1.15,1.92,1.54s1.15,3.46,1.54,3.46c0,.38,.77,3.46,.77,3.85s-1.15,3.85-1.15,4.23l-1.54,1.92-2.31,1.92h0ZM111.51,251.09c.38,.38,.38,.77,.77,1.15v1.54h.77c.38-.38,0-1.15,0-1.92,0-.38,0-.77-.38-.77v-1.15c-.38-.38-.38,0-.77,.38,0,0-.38,.38-.38,.77h0Zm1.54,4.23c0,.38,.77,1.54,1.54,1.54,.38,0,0-.77,0-.77-.38-.38-.38-.77-.77-.77v-.38c-.38-.38-.77,0-.77,.38h0Zm2.31,6.54s0,1.15,.38,1.15c.77,.38,.77-.38,.38-1.15,0,0-.38-.38-.77,0h0Zm3.84,13.46c.38,0,1.15,.38,1.15,0l-.38-.77-.38-.38,.77-.77v-.38q0-.38-.38-.38s0,.38-.38,.77c0,0-.38,.38-.77,1.15,0,.38,.38,.77,.38,.77h0Zm-1.92,16.16c0,.38,.38,1.15,.38,1.54,0,0,.38,.77,.77,.38,.38,0,.38-.77,0-.77v-.77l-.38-.38c0-.38-.77-.77-.77,0h0Zm2.31,4.62v1.15c0,.38,.38,.38,.77,.77,0,0,.38,.38,.38,0,0,0,0-.38-.38-.38v-1.15c.38,0,.38-.38,0-.38,0-.38-.38-.38-.38-.38-.38,0,0,0-.38,.38h0Zm30.37,52.7h-.77s-.38,0-.38,.38,.38,.38,.77,.38h.38c.38-.38,.38-.77,0-.77h0Z"/>
    <g class="cls-6">
      <path class="cls-4" d="M111.54,247.74v.77c0,.39-.38,.39-.38,.39-.38,.39-.38-.77-.77-1.16,.38-.77,1.15-.39,1.15,0h0Zm8.85-.39l2.69,4.63,2.31,1.93,.38,1.54,1.92,1.54h6.15l1.15,2.7,10-2.7,1.15,1.16,1.15,2.7-.77,2.7-1.92,2.31,1.54,1.54,2.69,1.54,1.15,1.93v5.01l1.54,1.16h1.54l6.92-3.47,4.62,2.31,1.92-1.54,1.54-3.09,7.31-5.4,5.77-5.4,5.77-3.09v-1.54l-5-2.7-.77-1.16,1.54-1.54,5.77-1.93,5.77-3.47,1.15-2.7-1.15-4.63,.38-1.54,2.69-.39,1.54,.39,2.31,.39,.38-7.71,.77-3.86-.77-1.93,3.08-3.86v-2.31l-3.08-1.54-2.69-9.26-5.77-2.7v-11.18l-5.77-1.54-8.46-2.31-6.15,.39-1.92,.77c-.38,.39-3.46,3.86-3.46,3.86h-6.54l-5.38,1.93s-2.69,.77-3.46,1.16c-.38,0-2.69-2.7-2.69-2.7l.77-10.8-1.15-4.24,1.92-11.18c0-.39-.38-1.54-.38-1.54-.38,0-1.92,.39-2.69,.39-.38,.39-1.54-1.16-1.54-1.54,0-.77,.77-1.54,.77-1.93,.38-.39,1.15-3.09,1.15-3.09l-.38-2.7-2.69-2.31s-3.85,.77-3.85,1.16c-.38,0-5.38,1.16-5.38,1.16l-5.77-1.16-5-3.47-2.69-.77v-2.7l-.77-.77s-1.15,0-1.15,.39c-.38,0,0,1.93,0,2.31s-1.54,.39-1.54,.39c-.38,0-2.69-1.54-3.08-1.54,0-.39-1.15,.77-1.15,.77l-3.85,1.54h-.77v-2.7l-2.69-2.7c-.38-.39,0-1.54,0-1.93-.38-.39-.77-.39-.77-.39-.38,0-2.31-.39-3.08,0-.38,0-1.92-.39-1.92-.77-.38,0-1.54-1.93-1.54-1.93,0-.39-1.15-1.93-1.54-2.7,0-.39,0-1.54-.38-1.93,0-.77-.77-1.54-1.15-1.54l-1.54-1.16-4.62,2.7-3.85-1.16-1.54-1.54c-.38-.39-2.31-.39-2.31-.39l-2.31,1.54-8.46,2.31v1.54l3.85,.77,1.15,2.7-.77,2.31v8.1l1.92,1.54,3.85,.77v1.54l1.15,1.16-3.08,3.86-.38,2.31,1.92,4.24v2.7h.38l1.92-1.16,4.23,2.7,.38,1.54,3.85,5.78,3.46,1.93v1.16l.77,1.93-1.54,1.93,1.54,1.54h3.08l.38,3.09-1.54,5.79v7.33l-1.92,3.86h-4.23l-3.85,2.7-4.62,.39-1.92,2.7v.77l1.15,1.16c0,.39,.38,.77,.38,.77l.38,.77c.38,0,.38,.77,.38,.77,0,.39-.38,.39-.77,.39,0,0-.38,.39-.38,.77s.38,.77,.77,1.16l.77,1.16c.38,0,.38,.77,.38,.77,0,0,.38,.39,.77,.39s.38,.39,.77,.39l1.54,.39v-1.54l1.54,.39,.38,.39s1.15,.39,1.54,.77c0,0,.38,.77,.38,1.16l1.92,1.93h1.92v-1.93h.38s.38,2.31,.38,2.7,.77,.77,1.54,1.16c.77,.39,1.92,1.16,2.31,1.54l.77,.77s.77,.39,1.15,.39c.38,.39,0,.77,0,1.16l1.15,.39c.38,0,1.54,.39,1.54,.77v.77c.38,0,1.92,1.16,1.92,1.54l.38,.77s.77,.39,1.15,.77c.77,.39,.77,.77,.77,1.16v1.54c0,.39,1.15,2.31,1.15,2.7s.38,1.16,.38,1.54,.38,.77,.38,.77c0,0,.38-.39,.38-.77s.38-.39,.38,0c.38,0,1.15,1.54,1.54,1.93v1.93l3.85-.39,2.69-1.16h0Z"/>
      <path class="cls-9" d="M111.54,247.74v.77c0,.39-.38,.39-.38,.39-.38,.39-.38-.77-.77-1.16,.38-.77,1.15-.39,1.15,0h0Zm8.85-.39l2.69,4.63,2.31,1.93,.38,1.54,1.92,1.54h6.15l1.15,2.7,10-2.7,1.15,1.16,1.15,2.7-.77,2.7-1.92,2.31,1.54,1.54,2.69,1.54,1.15,1.93v5.01l1.54,1.16h1.54l6.92-3.47,4.62,2.31,1.92-1.54,1.54-3.09,7.31-5.4,5.77-5.4,5.77-3.09v-1.54l-5-2.7-.77-1.16,1.54-1.54,5.77-1.93,5.77-3.47,1.15-2.7-1.15-4.63,.38-1.54,2.69-.39,1.54,.39,2.31,.39,.38-7.71,.77-3.86-.77-1.93,3.08-3.86v-2.31l-3.08-1.54-2.69-9.26-5.77-2.7v-11.18l-5.77-1.54-8.46-2.31-6.15,.39-1.92,.77c-.38,.39-3.46,3.86-3.46,3.86h-6.54l-5.38,1.93s-2.69,.77-3.46,1.16c-.38,0-2.69-2.7-2.69-2.7l.77-10.8-1.15-4.24,1.92-11.18c0-.39-.38-1.54-.38-1.54-.38,0-1.92,.39-2.69,.39-.38,.39-1.54-1.16-1.54-1.54,0-.77,.77-1.54,.77-1.93,.38-.39,1.15-3.09,1.15-3.09l-.38-2.7-2.69-2.31s-3.85,.77-3.85,1.16c-.38,0-5.38,1.16-5.38,1.16l-5.77-1.16-5-3.47-2.69-.77v-2.7l-.77-.77s-1.15,0-1.15,.39c-.38,0,0,1.93,0,2.31s-1.54,.39-1.54,.39c-.38,0-2.69-1.54-3.08-1.54,0-.39-1.15,.77-1.15,.77l-3.85,1.54h-.77v-2.7l-2.69-2.7c-.38-.39,0-1.54,0-1.93-.38-.39-.77-.39-.77-.39-.38,0-2.31-.39-3.08,0-.38,0-1.92-.39-1.92-.77-.38,0-1.54-1.93-1.54-1.93,0-.39-1.15-1.93-1.54-2.7,0-.39,0-1.54-.38-1.93,0-.77-.77-1.54-1.15-1.54l-1.54-1.16-4.62,2.7-3.85-1.16-1.54-1.54c-.38-.39-2.31-.39-2.31-.39l-2.31,1.54-8.46,2.31v1.54l3.85,.77,1.15,2.7-.77,2.31v8.1l1.92,1.54,3.85,.77v1.54l1.15,1.16-3.08,3.86-.38,2.31,1.92,4.24v2.7h.38l1.92-1.16,4.23,2.7,.38,1.54,3.85,5.78,3.46,1.93v1.16l.77,1.93-1.54,1.93,1.54,1.54h3.08l.38,3.09-1.54,5.79v7.33l-1.92,3.86h-4.23l-3.85,2.7-4.62,.39-1.92,2.7v.77l1.15,1.16c0,.39,.38,.77,.38,.77l.38,.77c.38,0,.38,.77,.38,.77,0,.39-.38,.39-.77,.39,0,0-.38,.39-.38,.77s.38,.77,.77,1.16l.77,1.16c.38,0,.38,.77,.38,.77,0,0,.38,.39,.77,.39s.38,.39,.77,.39l1.54,.39v-1.54l1.54,.39,.38,.39s1.15,.39,1.54,.77c0,0,.38,.77,.38,1.16l1.92,1.93h1.92v-1.93h.38s.38,2.31,.38,2.7,.77,.77,1.54,1.16c.77,.39,1.92,1.16,2.31,1.54l.77,.77s.77,.39,1.15,.39c.38,.39,0,.77,0,1.16l1.15,.39c.38,0,1.54,.39,1.54,.77v.77c.38,0,1.92,1.16,1.92,1.54l.38,.77s.77,.39,1.15,.77c.77,.39,.77,.77,.77,1.16v1.54c0,.39,1.15,2.31,1.15,2.7s.38,1.16,.38,1.54,.38,.77,.38,.77c0,0,.38-.39,.38-.77s.38-.39,.38,0c.38,0,1.15,1.54,1.54,1.93v1.93l3.85-.39,2.69-1.16h0Z"/>
      <g class="cls-11">
        <path class="cls-4" d="M358.25,222.32c-3.08-2.69-3.85-3.46-3.85-3.46l-4.62-3.08-4.23-3.08-1.15-6.93v-8.47l-.38-22.7s0-5.77-4.23-6.54c-3.46-1.54-6.93-2.69-6.93-2.69l-5.77-5.77-5.39,.77-10.78-6.16s-3.46-.77-5-.77c-1.92,0-4.62-1.92-5.77-3.46-1.15-1.54-2.69-2.69-5.39-3.08-1.92-.38-4.23-1.54-4.23-1.54l-4.23-3.46s-1.54-1.54-1.92-3.08c-.38-1.15-.38-1.54-1.15-2.31-.77-1.15-3.08-1.92-3.08-1.92l-.77,1.15s-1.54,.38-1.92,.38-2.69-1.15-2.69-1.15c-2.69,.77-2.69,1.15-3.08,1.54s-1.15,3.46-1.15,4.23v1.54c.77,.38,1.92,.77,2.31,.77,.77,.38,2.69,2.31,3.08,2.31v4.23s-.77,1.15-1.15,1.54c0,.38-2.31,.77-2.69,.77l-4.23,5.77-1.92,.38-1.54,.77v7.7l1.54,3.46s1.54,2.69,1.92,3.46c.77,.38,2.69,2.31,3.46,3.08,.38,.38,.77,2.31,.77,2.69s-.38,1.54-.38,1.92,.77,1.15,1.15,1.92c.38,.77,.77,1.92,.77,2.31,.38,.38,0,2.31,0,3.85,.38,1.15-1.15,.77-1.54,.77,0,.38-3.08,.38-3.08,.38,0,.38-5,.38-5,.38l-3.85-.77c-.38,.38-3.85,0-4.23,0-.38,.38-2.31,1.92-2.69,2.31-.38,.38-.77,1.92-.77,2.31-.38,.38-1.92,.77-2.31,1.54-.38,.38-2.31,1.92-2.69,1.92-.77,.38-1.92,.77-3.08,1.15-.77,.38-3.46,.77-3.85,.77-.77,.38-2.69,.77-3.46,1.54-.77,.38-2.31,1.54-2.69,1.92s-1.92,1.92-2.31,2.31-1.15,2.31-1.15,2.69c0,.77,.77,3.08,.77,3.46,0,.77-.77,2.69-1.15,3.08,0,0-1.54,.38-2.31,.38-.38,.38-2.69-.77-2.69-.77l-2.31,.77h-4.62l-3.46-.38-4.62-2.31-3.08,.38-2.69,3.85v2.31l-3.08,3.85,.77,1.92-.77,3.85-.38,7.7-.77,3.85,4.62,5.39,1.15,3.46s0,3.46,.38,3.85c0,.38,.77,2.69,.77,2.69,0,0,1.92,5,2.31,5.39,0,0,1.15,2.69,1.54,3.08l2.69,1.15,6.93,.77s4.23,.38,4.62,.38c.38,.38,1.92,1.92,1.92,1.92,0,.38,0,2.31-.38,2.69-.38,.77-.38,3.08-.38,3.46,0,.77,1.92,2.69,2.31,2.69,.77,.38,2.31,.77,2.31,.77l1.92-1.15,3.08,.38,3.85,1.15v10.77l.77,5s-2.31,4.23-2.31,4.62v8.47l-1.15,2.31,1.15,2.31,2.31,3.46c0,.38,2.69,4.62,3.08,5l.38,2.31,3.46,2.31,3.46,3.85,3.85,5v3.08l-1.54,2.31s-1.92,5.39-1.92,5.77l.38,2.69,3.08,3.46,1.15,3.08,11.55,10,8.47,5.39,5.39,1.54,11.55,.38,14.24-1.92,6.93-.38,11.93-1.15,5-.77,3.08-.38,20.01-4.23,13.09-118.52s1.92-13.47-9.24-21.93h0Z"/>
        <path class="cls-9" d="M358.25,222.32c-3.08-2.69-3.85-3.46-3.85-3.46l-4.62-3.08-4.23-3.08-1.15-6.93v-8.47l-.38-22.7s0-5.77-4.23-6.54c-3.46-1.54-6.93-2.69-6.93-2.69l-5.77-5.77-5.39,.77-10.78-6.16s-3.46-.77-5-.77c-1.92,0-4.62-1.92-5.77-3.46-1.15-1.54-2.69-2.69-5.39-3.08-1.92-.38-4.23-1.54-4.23-1.54l-4.23-3.46s-1.54-1.54-1.92-3.08c-.38-1.15-.38-1.54-1.15-2.31-.77-1.15-3.08-1.92-3.08-1.92l-.77,1.15s-1.54,.38-1.92,.38-2.69-1.15-2.69-1.15c-2.69,.77-2.69,1.15-3.08,1.54s-1.15,3.46-1.15,4.23v1.54c.77,.38,1.92,.77,2.31,.77,.77,.38,2.69,2.31,3.08,2.31v4.23s-.77,1.15-1.15,1.54c0,.38-2.31,.77-2.69,.77l-4.23,5.77-1.92,.38-1.54,.77v7.7l1.54,3.46s1.54,2.69,1.92,3.46c.77,.38,2.69,2.31,3.46,3.08,.38,.38,.77,2.31,.77,2.69s-.38,1.54-.38,1.92,.77,1.15,1.15,1.92c.38,.77,.77,1.92,.77,2.31,.38,.38,0,2.31,0,3.85,.38,1.15-1.15,.77-1.54,.77,0,.38-3.08,.38-3.08,.38,0,.38-5,.38-5,.38l-3.85-.77c-.38,.38-3.85,0-4.23,0-.38,.38-2.31,1.92-2.69,2.31-.38,.38-.77,1.92-.77,2.31-.38,.38-1.92,.77-2.31,1.54-.38,.38-2.31,1.92-2.69,1.92-.77,.38-1.92,.77-3.08,1.15-.77,.38-3.46,.77-3.85,.77-.77,.38-2.69,.77-3.46,1.54-.77,.38-2.31,1.54-2.69,1.92s-1.92,1.92-2.31,2.31-1.15,2.31-1.15,2.69c0,.77,.77,3.08,.77,3.46,0,.77-.77,2.69-1.15,3.08,0,0-1.54,.38-2.31,.38-.38,.38-2.69-.77-2.69-.77l-2.31,.77h-4.62l-3.46-.38-4.62-2.31-3.08,.38-2.69,3.85v2.31l-3.08,3.85,.77,1.92-.77,3.85-.38,7.7-.77,3.85,4.62,5.39,1.15,3.46s0,3.46,.38,3.85c0,.38,.77,2.69,.77,2.69,0,0,1.92,5,2.31,5.39,0,0,1.15,2.69,1.54,3.08l2.69,1.15,6.93,.77s4.23,.38,4.62,.38c.38,.38,1.92,1.92,1.92,1.92,0,.38,0,2.31-.38,2.69-.38,.77-.38,3.08-.38,3.46,0,.77,1.92,2.69,2.31,2.69,.77,.38,2.31,.77,2.31,.77l1.92-1.15,3.08,.38,3.85,1.15v10.77l.77,5s-2.31,4.23-2.31,4.62v8.47l-1.15,2.31,1.15,2.31,2.31,3.46c0,.38,2.69,4.62,3.08,5l.38,2.31,3.46,2.31,3.46,3.85,3.85,5v3.08l-1.54,2.31s-1.92,5.39-1.92,5.77l.38,2.69,3.08,3.46,1.15,3.08,11.55,10,8.47,5.39,5.39,1.54,11.55,.38,14.24-1.92,6.93-.38,11.93-1.15,5-.77,3.08-.38,20.01-4.23,13.09-118.52s1.92-13.47-9.24-21.93h0Z"/>
        <g class="cls-17">
          <path class="cls-2" d="M210.46,212.6l4.62,2.31,3.47,.38h4.62l2.31-.77s2.31,1.15,2.7,.77c.77,0,2.31-.38,2.31-.38,.39-.38,1.16-2.31,1.16-3.08,0-.38-.77-2.69-.77-3.46,0-.38,.77-2.31,1.16-2.69,.39-.38,1.93-1.92,2.31-2.31,.39-.38,1.93-1.54,2.7-1.92,.77-.77,2.7-1.15,3.47-1.54,.39,0,3.08-.38,3.85-.77,1.16-.38,2.31-.77,3.08-1.15,.39,0,2.31-1.54,2.7-1.92,.39-.77,1.93-1.15,2.31-1.54,0-.38,.39-1.92,.77-2.31,.39-.38,2.31-1.92,2.7-2.31,.39,0,3.85,.38,4.24,0l3.85,.77s5.01,0,5.01-.38c0,0,3.08,0,3.08-.38,.39,0,1.93,.38,1.54-.77,0-1.54,.39-3.46,0-3.85,0-.38-.39-1.54-.77-2.31-.39-.77-1.16-1.54-1.16-1.92s.39-1.54,.39-1.92-.39-2.31-.77-2.69c-.77-.77-2.7-2.69-3.47-3.08-.39-.77-1.93-3.46-1.93-3.46l-1.54-3.46v-7.69l1.54-.77,1.93-.38,4.24-5.77c.39,0,2.7-.38,2.7-.77,.39-.38,1.16-1.54,1.16-1.54v-4.23c-.39,0-2.31-1.92-3.08-2.31-.39,0-1.54-.38-2.31-.77-.39,.38-.39,.77-.77,1.15-.39,.77-1.54,2.31-1.93,2.69-.39,.77-1.54,1.15-1.93,1.15,0,0-1.93-.38-2.31-.38s-2.31,0-3.08-.38c-.39,0-1.54-1.15-1.93-1.15,0,0-1.54-1.54-3.85-3.85-1.93-1.92-3.85-1.54-3.85-1.54l-6.16,2.69-7.7,4.23s-1.54,1.54-1.54,1.92l-1.16,2.31c0,.38-.77,1.54-.77,1.54l-1.54,.77-2.31,.38-.77,1.54-5.39,2.31-8.47,6.92s-1.16,1.15-2.31,2.31c-.39,2.31-.77,3.08-1.16,3.08,0,.38-1.54,.38-1.93,.38h-1.54c-.39,0-.77,1.15-1.16,1.15-.39,.38-1.16,2.69-1.16,2.69,0,0,.77,2.69,.77,3.08v1.92c-.39,.38-1.54,0-1.93,0s-2.7-.77-3.08-1.15l-1.16,.38-.77,2.69c0,.38,1.16,2.31,1.54,2.69,.39,.38,0,1.54,0,1.92,0,.77-1.54,0-1.54,0l-3.85,.38-1.93,1.54-1.93,1.54h-3.08l-1.54,1.54,5.78,1.54v11.16l5.78,2.69,2.7,9.23,3.08,1.54,2.7-3.85,3.08-.38h0Z"/>
          <path class="cls-9" d="M210.46,212.6l4.62,2.31,3.47,.38h4.62l2.31-.77s2.31,1.15,2.7,.77c.77,0,2.31-.38,2.31-.38,.39-.38,1.16-2.31,1.16-3.08,0-.38-.77-2.69-.77-3.46,0-.38,.77-2.31,1.16-2.69,.39-.38,1.93-1.92,2.31-2.31,.39-.38,1.93-1.54,2.7-1.92,.77-.77,2.7-1.15,3.47-1.54,.39,0,3.08-.38,3.85-.77,1.16-.38,2.31-.77,3.08-1.15,.39,0,2.31-1.54,2.7-1.92,.39-.77,1.93-1.15,2.31-1.54,0-.38,.39-1.92,.77-2.31,.39-.38,2.31-1.92,2.7-2.31,.39,0,3.85,.38,4.24,0l3.85,.77s5.01,0,5.01-.38c0,0,3.08,0,3.08-.38,.39,0,1.93,.38,1.54-.77,0-1.54,.39-3.46,0-3.85,0-.38-.39-1.54-.77-2.31-.39-.77-1.16-1.54-1.16-1.92s.39-1.54,.39-1.92-.39-2.31-.77-2.69c-.77-.77-2.7-2.69-3.47-3.08-.39-.77-1.93-3.46-1.93-3.46l-1.54-3.46v-7.69l1.54-.77,1.93-.38,4.24-5.77c.39,0,2.7-.38,2.7-.77,.39-.38,1.16-1.54,1.16-1.54v-4.23c-.39,0-2.31-1.92-3.08-2.31-.39,0-1.54-.38-2.31-.77-.39,.38-.39,.77-.77,1.15-.39,.77-1.54,2.31-1.93,2.69-.39,.77-1.54,1.15-1.93,1.15,0,0-1.93-.38-2.31-.38s-2.31,0-3.08-.38c-.39,0-1.54-1.15-1.93-1.15,0,0-1.54-1.54-3.85-3.85-1.93-1.92-3.85-1.54-3.85-1.54l-6.16,2.69-7.7,4.23s-1.54,1.54-1.54,1.92l-1.16,2.31c0,.38-.77,1.54-.77,1.54l-1.54,.77-2.31,.38-.77,1.54-5.39,2.31-8.47,6.92s-1.16,1.15-2.31,2.31c-.39,2.31-.77,3.08-1.16,3.08,0,.38-1.54,.38-1.93,.38h-1.54c-.39,0-.77,1.15-1.16,1.15-.39,.38-1.16,2.69-1.16,2.69,0,0,.77,2.69,.77,3.08v1.92c-.39,.38-1.54,0-1.93,0s-2.7-.77-3.08-1.15l-1.16,.38-.77,2.69c0,.38,1.16,2.31,1.54,2.69,.39,.38,0,1.54,0,1.92,0,.77-1.54,0-1.54,0l-3.85,.38-1.93,1.54-1.93,1.54h-3.08l-1.54,1.54,5.78,1.54v11.16l5.78,2.69,2.7,9.23,3.08,1.54,2.7-3.85,3.08-.38h0Z"/>
          <g class="cls-14">
            <path class="cls-2" d="M32.27,88.65l.77,.38,3.85,.38,3.85-2.31h5.78s2.7-.38,3.85-.77,5.39,1.15,5.78,1.54,3.08,2.31,3.08,2.31l5.39,8.46,1.93,1.15,6.93-1.15,4.24-1.15,6.16,2.69h3.47l3.08,.38,2.31-5.38,2.31-.38,2.31-2.69,1.54,1.54-.39,2.31c0,.38-.39,2.69-.39,2.69v5.38l2.31,3.46,3.47,2.31,4.24,.77,3.47,.77,2.7-1.15,1.54,1.15h1.93l.77,2.31,1.54,.77,5.01-1.92,3.47,1.15s3.85-3.84,4.24-3.84c.39-.38,1.16-.38,1.16-.38l2.7-1.15,1.54-.77,1.16-.38,5.39-1.92h2.7l10.4-6.15,8.47-3.08,1.54,.38s4.62-4.23,5.01-5v-4.23s.39-3.84,0-3.84c0-.38,1.16-3.46,1.16-3.46,0-.38,4.62-3.46,4.62-3.46l10.78-6.15,10.4-6.54,3.47-2.69v-1.15c0-.38-5.78-4.61-5.78-5-.39,0-2.31-4.61-2.31-5-.39-.38-3.08-1.92-3.08-1.92l-7.7-.77-5.78-5h-17.33l-3.47-1.54-3.85-3.08-5.01-.38-10.4-2.31-4.24-.38s-5.01,.38-5.39,.38l-10.4,1.15-5.39-.38s-1.93-2.69-2.31-2.69c0-.38-1.16-3.08-1.16-3.08,0-.38-3.85-3.46-3.85-3.46v-5.77l3.47-9.23-23.49,5.77,22.33,29.99-8.09,4.61-4.62,8.84-18.48,3.08-6.55,10-11.55,8.46-26.18-6.15s-.77,2.31-1.16,2.69c0,.38-.39,.77-.39,1.15,0,0-1.16,2.69-1.16,3.08s-.39,1.54-.77,1.92c0,.77-.39,1.54-.39,2.31,0,0,0,.38-.39,1.15l2.31-.38,1.54,.77h0Z"/>
            <path class="cls-9" d="M32.27,88.65l.77,.38,3.85,.38,3.85-2.31h5.78s2.7-.38,3.85-.77,5.39,1.15,5.78,1.54,3.08,2.31,3.08,2.31l5.39,8.46,1.93,1.15,6.93-1.15,4.24-1.15,6.16,2.69h3.47l3.08,.38,2.31-5.38,2.31-.38,2.31-2.69,1.54,1.54-.39,2.31c0,.38-.39,2.69-.39,2.69v5.38l2.31,3.46,3.47,2.31,4.24,.77,3.47,.77,2.7-1.15,1.54,1.15h1.93l.77,2.31,1.54,.77,5.01-1.92,3.47,1.15s3.85-3.84,4.24-3.84c.39-.38,1.16-.38,1.16-.38l2.7-1.15,1.54-.77,1.16-.38,5.39-1.92h2.7l10.4-6.15,8.47-3.08,1.54,.38s4.62-4.23,5.01-5v-4.23s.39-3.84,0-3.84c0-.38,1.16-3.46,1.16-3.46,0-.38,4.62-3.46,4.62-3.46l10.78-6.15,10.4-6.54,3.47-2.69v-1.15c0-.38-5.78-4.61-5.78-5-.39,0-2.31-4.61-2.31-5-.39-.38-3.08-1.92-3.08-1.92l-7.7-.77-5.78-5h-17.33l-3.47-1.54-3.85-3.08-5.01-.38-10.4-2.31-4.24-.38s-5.01,.38-5.39,.38l-10.4,1.15-5.39-.38s-1.93-2.69-2.31-2.69c0-.38-1.16-3.08-1.16-3.08,0-.38-3.85-3.46-3.85-3.46v-5.77l3.47-9.23-23.49,5.77,22.33,29.99-8.09,4.61-4.62,8.84-18.48,3.08-6.55,10-11.55,8.46-26.18-6.15s-.77,2.31-1.16,2.69c0,.38-.39,.77-.39,1.15,0,0-1.16,2.69-1.16,3.08s-.39,1.54-.77,1.92c0,.77-.39,1.54-.39,2.31,0,0,0,.38-.39,1.15l2.31-.38,1.54,.77h0Z"/>
            <g class="cls-19">
              <path class="cls-2" d="M195.03,348.21s-.38-1.53-.38-1.92l.38-1.53,3.44-1.92,2.29-1.92v-1.92s-1.15-1.92-1.15-2.3c0,0,.38-2.69,.38-3.07,0,0,.38-.77,.76-1.53v-.38s-.38-.38-.76-1.15c-.76-.77-2.29,0-2.68,0s-3.06,1.53-3.06,1.53h-4.59s-1.53,.77-1.91,1.15c-.38,0-1.91-1.15-1.91-1.15-.38-.38,0-.38-1.53-2.69-1.15-2.3-1.91-1.53-2.29-1.92-.76,0-1.91,.77-1.91,1.15-.38,.38-.76,1.92-.38,2.3,0,.38,.38,3.84,.38,4.6,0,.38-3.06,6.14-3.06,6.14-.38,.38-6.5,1.92-6.5,1.92,0,.38-1.91,1.53-2.29,1.92-.76,.77,0,1.92,0,2.3s1.91,1.15,2.29,1.15c.76,.38,1.15,.77,1.15,1.15,.38,.38,0,3.84,0,4.22,0,.77,.38,2.69,.76,3.07,0,.77-.38,2.3-.38,3.45-.38,.77,1.15,1.15,1.91,1.53,.38,.38,2.29,3.07,3.44,3.84,.76,1.15,1.91,1.53,2.68,1.15,.38,0,1.91-.77,2.29-1.53,.76-.38,1.15-3.45,1.15-3.84,.38-.77,1.15-2.69,1.15-3.07l1.91-3.07h4.21l1.15-.77h.38c0-1.15,.38-2.69,.38-2.69l2.29-4.22h0Z"/>
              <path class="cls-9" d="M195.03,348.21s-.38-1.53-.38-1.92l.38-1.53,3.44-1.92,2.29-1.92v-1.92s-1.15-1.92-1.15-2.3c0,0,.38-2.69,.38-3.07,0,0,.38-.77,.76-1.53v-.38s-.38-.38-.76-1.15c-.76-.77-2.29,0-2.68,0s-3.06,1.53-3.06,1.53h-4.59s-1.53,.77-1.91,1.15c-.38,0-1.91-1.15-1.91-1.15-.38-.38,0-.38-1.53-2.69-1.15-2.3-1.91-1.53-2.29-1.92-.76,0-1.91,.77-1.91,1.15-.38,.38-.76,1.92-.38,2.3,0,.38,.38,3.84,.38,4.6,0,.38-3.06,6.14-3.06,6.14-.38,.38-6.5,1.92-6.5,1.92,0,.38-1.91,1.53-2.29,1.92-.76,.77,0,1.92,0,2.3s1.91,1.15,2.29,1.15c.76,.38,1.15,.77,1.15,1.15,.38,.38,0,3.84,0,4.22,0,.77,.38,2.69,.76,3.07,0,.77-.38,2.3-.38,3.45-.38,.77,1.15,1.15,1.91,1.53,.38,.38,2.29,3.07,3.44,3.84,.76,1.15,1.91,1.53,2.68,1.15,.38,0,1.91-.77,2.29-1.53,.76-.38,1.15-3.45,1.15-3.84,.38-.77,1.15-2.69,1.15-3.07l1.91-3.07h4.21l1.15-.77h.38c0-1.15,.38-2.69,.38-2.69l2.29-4.22h0Z"/>
              <g class="cls-1">
                <path class="cls-2" d="M244.27,417.51l-.77-1.93,.77-6.56s.77-2.31,.39-3.08c0-.39-.77-3.08-.77-3.08-.39-.39-.39-1.93,0-2.31l.77-1.54,8.86-8.1,2.31-4.24,4.24-.77,3.08-2.31,1.16-3.47s-1.16-5.4-1.16-5.78,0-1.93,.39-2.31c.39-.39,2.31-1.54,2.7-1.54l1.16-.77c.39-.39,.39-3.47,0-3.47,0-.39,.39-1.93,.39-1.93l-11.55-10.03-1.16-3.08-3.08-3.47-.39-2.7c0-.39,1.93-5.78,1.93-5.78l1.54-2.31v-3.08l-3.85-5.01-3.47-3.86-3.47-2.31-1.54,.39-5.39,3.08-5.01-1.16-3.47,1.54h-3.47l-3.47,3.47s-3.85,.77-3.85,1.16c-.39,0-6.55,5.78-6.93,6.17-.39,0-1.54,1.93-3.47,2.31-1.54,.39-3.08-.39-3.08-.39l-3.85-7.33c-.39,.77-.77,1.54-.77,1.54,0,.39-.39,3.08-.39,3.08,0,.39,1.16,2.31,1.16,2.31v1.93l-2.31,1.93-3.47,1.93-.39,1.54c0,.39,.39,1.93,.39,1.93l-2.31,4.24s-.39,1.54-.39,2.7c.39-.39,1.16-.77,1.54-.77s.77,.77,.77,.77c0,0,1.16,1.16,1.16,1.54l-.39,3.09c0,.39-.39,2.31-.39,2.7s1.54,3.86,1.54,3.86c0,.39-.39,1.93-.39,2.7-.39,.39-1.54,1.93-2.31,2.7-1.16,.39-2.31,0-2.7,0h-3.08c-.39,0-1.54,1.16-1.93,1.54-.39,.39-1.54,.39-1.93,.39l-1.54-1.16s-.39,4.24-.39,4.63c0,0,.39,3.86,.39,4.63,0,.39,1.16,1.93,1.54,1.93,0,0,2.31,.39,2.31,.77h3.47c.39,0,1.93,1.16,1.93,1.54s1.16,3.47,1.54,3.47c0,.39,.77,3.47,.77,3.86s-1.16,3.86-1.16,4.24h3.85l.39,3.09-.77,3.47,1.54,1.16h3.47s.77,2.31,1.16,2.7l1.54,1.54,6.55,.39,1.16,3.47s1.16,.77,1.54,.77c0,.39,2.31,2.7,2.7,2.7l1.16-.39c.39-.39,1.16-3.86,1.16-3.86,0-.39,1.93-3.86,1.93-4.24,.39-.39,2.7-1.54,2.7-1.54l1.16,.39s.39,3.47,0,3.47c0,.39,3.08,1.93,3.47,2.31,.39,0,1.54,3.09,1.54,3.09l1.93,.39,3.85,3.86,.77-.39h3.08l4.24,3.86,1.16-3.08v-3.09h0Z"/>
                <path class="cls-9" d="M244.27,417.51l-.77-1.93,.77-6.56s.77-2.31,.39-3.08c0-.39-.77-3.08-.77-3.08-.39-.39-.39-1.93,0-2.31l.77-1.54,8.86-8.1,2.31-4.24,4.24-.77,3.08-2.31,1.16-3.47s-1.16-5.4-1.16-5.78,0-1.93,.39-2.31c.39-.39,2.31-1.54,2.7-1.54l1.16-.77c.39-.39,.39-3.47,0-3.47,0-.39,.39-1.93,.39-1.93l-11.55-10.03-1.16-3.08-3.08-3.47-.39-2.7c0-.39,1.93-5.78,1.93-5.78l1.54-2.31v-3.08l-3.85-5.01-3.47-3.86-3.47-2.31-1.54,.39-5.39,3.08-5.01-1.16-3.47,1.54h-3.47l-3.47,3.47s-3.85,.77-3.85,1.16c-.39,0-6.55,5.78-6.93,6.17-.39,0-1.54,1.93-3.47,2.31-1.54,.39-3.08-.39-3.08-.39l-3.85-7.33c-.39,.77-.77,1.54-.77,1.54,0,.39-.39,3.08-.39,3.08,0,.39,1.16,2.31,1.16,2.31v1.93l-2.31,1.93-3.47,1.93-.39,1.54c0,.39,.39,1.93,.39,1.93l-2.31,4.24s-.39,1.54-.39,2.7c.39-.39,1.16-.77,1.54-.77s.77,.77,.77,.77c0,0,1.16,1.16,1.16,1.54l-.39,3.09c0,.39-.39,2.31-.39,2.7s1.54,3.86,1.54,3.86c0,.39-.39,1.93-.39,2.7-.39,.39-1.54,1.93-2.31,2.7-1.16,.39-2.31,0-2.7,0h-3.08c-.39,0-1.54,1.16-1.93,1.54-.39,.39-1.54,.39-1.93,.39l-1.54-1.16s-.39,4.24-.39,4.63c0,0,.39,3.86,.39,4.63,0,.39,1.16,1.93,1.54,1.93,0,0,2.31,.39,2.31,.77h3.47c.39,0,1.93,1.16,1.93,1.54s1.16,3.47,1.54,3.47c0,.39,.77,3.47,.77,3.86s-1.16,3.86-1.16,4.24h3.85l.39,3.09-.77,3.47,1.54,1.16h3.47s.77,2.31,1.16,2.7l1.54,1.54,6.55,.39,1.16,3.47s1.16,.77,1.54,.77c0,.39,2.31,2.7,2.7,2.7l1.16-.39c.39-.39,1.16-3.86,1.16-3.86,0-.39,1.93-3.86,1.93-4.24,.39-.39,2.7-1.54,2.7-1.54l1.16,.39s.39,3.47,0,3.47c0,.39,3.08,1.93,3.47,2.31,.39,0,1.54,3.09,1.54,3.09l1.93,.39,3.85,3.86,.77-.39h3.08l4.24,3.86,1.16-3.08v-3.09h0Z"/>
              </g>
            </g>
          </g>
        </g>
      </g>
    </g>
  </g>
  <g>
    <path class="cls-20" d="M383.19,298.01c.23-.53,.55-.98,.94-1.37s.85-.69,1.38-.92c.53-.23,1.09-.34,1.69-.34h4.5v4.32c0,.08,0,.16-.01,.23s0,.14,0,.21c0,.25,0,.47-.03,.66-.02,.19,0,.34,.03,.46s.12,.21,.25,.26c.13,.05,.33,.08,.61,.08h1.12v2.34h-1.34c-.51,0-.93-.1-1.27-.3-.34-.2-.61-.42-.81-.66-.39,.36-.83,.64-1.32,.84-.49,.2-1.02,.3-1.58,.3-.6,0-1.17-.12-1.71-.36-.54-.24-1.02-.56-1.43-.96s-.74-.87-.99-1.4-.37-1.1-.37-1.7,.12-1.16,.35-1.69Zm1.92-6.67c.29-.29,.64-.44,1.05-.44s.76,.15,1.05,.44c.29,.29,.43,.65,.43,1.06s-.14,.74-.43,1.03-.64,.43-1.05,.43-.76-.14-1.05-.43c-.29-.29-.43-.63-.43-1.03s.14-.77,.43-1.06Zm.75,9.86c.36,.36,.8,.54,1.32,.54,.25,0,.49-.05,.72-.14,.23-.09,.42-.23,.59-.4,.17-.17,.3-.37,.4-.59,.1-.22,.15-.46,.15-.73v-2.14h-1.86c-.27,0-.51,.06-.73,.19-.22,.13-.42,.29-.59,.5-.17,.21-.31,.44-.4,.69-.09,.25-.14,.51-.14,.76,0,.52,.18,.96,.54,1.32Zm2.55-9.86c.29-.29,.64-.44,1.05-.44s.76,.15,1.05,.44c.29,.29,.43,.65,.43,1.06s-.14,.74-.43,1.03-.64,.43-1.05,.43-.76-.14-1.05-.43c-.29-.29-.43-.63-.43-1.03s.14-.77,.43-1.06Z"/>
    <path class="cls-20" d="M393.98,301.61c.6,0,1.04-.11,1.32-.32,.28-.21,.42-.59,.42-1.12v-3.76h2.64v3.68c0,.53,.11,.92,.33,1.16,.22,.24,.62,.36,1.19,.36h1.14v2.34h-.38c-.65,0-1.19-.11-1.61-.34-.42-.23-.82-.64-1.21-1.24-.25,.53-.63,.93-1.14,1.19-.51,.26-1.1,.39-1.78,.39h-1.6v-2.34h.68Zm.43,4.04c.29-.29,.64-.44,1.05-.44s.76,.15,1.05,.44c.29,.29,.43,.65,.43,1.06s-.14,.74-.43,1.03-.64,.43-1.05,.43-.76-.14-1.05-.43-.43-.63-.43-1.03,.14-.77,.43-1.06Zm3.3,0c.29-.29,.64-.44,1.05-.44s.76,.15,1.05,.44c.29,.29,.43,.65,.43,1.06s-.14,.74-.43,1.03-.64,.43-1.05,.43-.76-.14-1.05-.43c-.29-.29-.43-.63-.43-1.03s.14-.77,.43-1.06Z"/>
    <path class="cls-20" d="M402.48,301.61c-.15-.29-.26-.61-.35-.94-.09-.33-.13-.68-.13-1.04,0-.6,.12-1.17,.37-1.7s.58-1,.99-1.4,.89-.72,1.43-.96,1.11-.36,1.71-.36,1.16,.12,1.69,.36,.99,.56,1.39,.96c.4,.4,.71,.87,.94,1.4,.23,.53,.34,1.1,.34,1.7v4.32h-10.2v-2.34h1.82Zm1.55-10.26c.29-.29,.64-.44,1.05-.44s.76,.15,1.05,.44c.29,.29,.43,.65,.43,1.06s-.14,.74-.43,1.03c-.29,.29-.64,.43-1.05,.43s-.76-.14-1.05-.43-.43-.63-.43-1.03,.14-.77,.43-1.06Zm.59,8.87c.09,.26,.23,.49,.4,.7,.17,.21,.37,.37,.59,.5,.22,.13,.46,.19,.73,.19h1.86v-2.16c0-.25-.05-.49-.15-.72-.1-.23-.23-.43-.4-.6-.17-.17-.36-.31-.59-.4-.23-.09-.47-.14-.72-.14-.52,0-.96,.18-1.32,.54-.36,.36-.54,.8-.54,1.32,0,.25,.05,.51,.14,.77Zm2.71-8.87c.29-.29,.64-.44,1.05-.44s.76,.15,1.05,.44c.29,.29,.43,.65,.43,1.06s-.14,.74-.43,1.03c-.29,.29-.64,.43-1.05,.43s-.76-.14-1.05-.43-.43-.63-.43-1.03,.14-.77,.43-1.06Z"/>
    <path class="cls-20" d="M417.45,303.95v.98c0,.48-.07,.92-.21,1.31-.14,.39-.34,.73-.61,1.02s-.59,.51-.97,.67c-.38,.16-.81,.24-1.29,.24h-.7c-.39,0-.72-.03-.99-.09-.27-.06-.44-.1-.51-.13v-2.22c.09,.03,.21,.05,.34,.07,.13,.02,.29,.03,.48,.03h.7c.4,0,.68-.1,.85-.31,.17-.21,.25-.49,.25-.85v-8.26h2.66v5.2h1.96v2.34h-1.96Z"/>
    <path class="cls-20" d="M432.85,301.29c.28-.21,.42-.59,.42-1.12v-3.76h2.64v3.68c0,.53,.11,.92,.33,1.16,.22,.24,.62,.36,1.19,.36h1.14v2.34h-.38c-.65,0-1.19-.11-1.61-.34-.42-.23-.82-.64-1.21-1.24-.25,.53-.63,.93-1.14,1.19-.51,.26-1.1,.39-1.78,.39h-.16c-.65,0-1.19-.11-1.61-.34-.42-.23-.82-.64-1.21-1.24-.25,.53-.65,.93-1.18,1.19-.53,.26-1.14,.39-1.82,.39s-1.2-.11-1.65-.34c-.45-.23-.86-.64-1.25-1.24-.25,.53-.63,.93-1.14,1.19-.51,.26-1.1,.39-1.78,.39h-1.6v-2.34h.68c.6,0,1.04-.11,1.32-.32,.28-.21,.42-.59,.42-1.12v-3.76h2.64v3.68c0,.53,.11,.92,.33,1.16,.22,.24,.62,.36,1.19,.36s1.04-.11,1.32-.32c.28-.21,.42-.59,.42-1.12v-3.76h2.64v3.68c0,.53,.11,.92,.33,1.16,.22,.24,.62,.36,1.19,.36s1.04-.11,1.32-.32Zm-6.91-9.96c.29-.29,.64-.44,1.05-.44s.76,.15,1.05,.44c.29,.29,.43,.65,.43,1.06s-.14,.74-.43,1.03-.64,.43-1.05,.43-.76-.14-1.05-.43-.43-.63-.43-1.03,.14-.77,.43-1.06Zm1.62-2.94c.29-.29,.64-.44,1.05-.44s.76,.15,1.05,.44c.29,.29,.43,.65,.43,1.06s-.14,.74-.43,1.03c-.29,.29-.64,.43-1.05,.43s-.76-.14-1.05-.43-.43-.63-.43-1.03,.14-.77,.43-1.06Zm1.68,2.94c.29-.29,.64-.44,1.05-.44s.76,.15,1.05,.44c.29,.29,.43,.65,.43,1.06s-.14,.74-.43,1.03-.64,.43-1.05,.43-.76-.14-1.05-.43c-.29-.29-.43-.63-.43-1.03s.14-.77,.43-1.06Z"/>
    <path class="cls-20" d="M438.66,301.61c.61,0,1.06-.1,1.33-.31,.27-.21,.41-.58,.41-1.11v-12.06h2.58v12.08c0,.67-.1,1.23-.3,1.7s-.47,.85-.8,1.16c-.33,.31-.71,.53-1.14,.67-.43,.14-.87,.21-1.32,.21h-1.22v-2.34h.46Z"/>
    <path class="cls-20" d="M445.38,288.12h2.58v15.82h-2.58v-15.82Z"/>
    <path class="cls-20" d="M454.51,298.01c.23-.53,.55-.98,.94-1.37s.85-.69,1.38-.92c.53-.23,1.09-.34,1.69-.34h4.5v4.32c0,.08,0,.16-.01,.23s0,.14,0,.21c0,.25,0,.47-.03,.66-.02,.19,0,.34,.03,.46s.12,.21,.25,.26c.13,.05,.33,.08,.61,.08h1.12v2.34h-1.34c-.51,0-.93-.1-1.27-.3-.34-.2-.61-.42-.81-.66-.39,.36-.83,.64-1.32,.84-.49,.2-1.02,.3-1.58,.3-.6,0-1.17-.12-1.71-.36-.54-.24-1.02-.56-1.43-.96s-.74-.87-.99-1.4-.37-1.1-.37-1.7,.12-1.16,.35-1.69Zm1.92-6.67c.29-.29,.64-.44,1.05-.44s.76,.15,1.05,.44c.29,.29,.43,.65,.43,1.06s-.14,.74-.43,1.03-.64,.43-1.05,.43-.76-.14-1.05-.43c-.29-.29-.43-.63-.43-1.03s.14-.77,.43-1.06Zm.75,9.86c.36,.36,.8,.54,1.32,.54,.25,0,.49-.05,.72-.14,.23-.09,.42-.23,.59-.4,.17-.17,.3-.37,.4-.59,.1-.22,.15-.46,.15-.73v-2.14h-1.86c-.27,0-.51,.06-.73,.19-.22,.13-.42,.29-.59,.5-.17,.21-.31,.44-.4,.69-.09,.25-.14,.51-.14,.76,0,.52,.18,.96,.54,1.32Zm2.55-9.86c.29-.29,.64-.44,1.05-.44s.76,.15,1.05,.44c.29,.29,.43,.65,.43,1.06s-.14,.74-.43,1.03-.64,.43-1.05,.43-.76-.14-1.05-.43c-.29-.29-.43-.63-.43-1.03s.14-.77,.43-1.06Z"/>
    <path class="cls-20" d="M466.44,301.61c-.15-.29-.26-.61-.35-.94-.09-.33-.13-.68-.13-1.04,0-.6,.12-1.17,.37-1.7s.58-1,.99-1.4,.89-.72,1.43-.96,1.11-.36,1.71-.36,1.16,.12,1.69,.36,.99,.56,1.39,.96c.4,.4,.71,.87,.94,1.4,.23,.53,.34,1.1,.34,1.7v1.98h1.54v2.34h-11.74v-2.34h1.82Zm1.29-10.26c.29-.29,.64-.44,1.05-.44s.76,.15,1.05,.44c.29,.29,.43,.65,.43,1.06s-.14,.74-.43,1.03-.64,.43-1.05,.43-.76-.14-1.05-.43c-.29-.29-.43-.63-.43-1.03s.14-.77,.43-1.06Zm.85,8.86c.09,.25,.22,.48,.38,.68,.16,.2,.35,.37,.56,.5,.21,.13,.45,.21,.7,.22h1.94v-2.16c0-.25-.05-.49-.15-.72-.1-.23-.23-.43-.4-.6-.17-.17-.36-.31-.59-.4-.23-.09-.47-.14-.72-.14-.52,0-.96,.18-1.32,.54-.36,.36-.54,.8-.54,1.32,0,.25,.05,.51,.14,.76Zm2.45-8.86c.29-.29,.64-.44,1.05-.44s.76,.15,1.05,.44c.29,.29,.43,.65,.43,1.06s-.14,.74-.43,1.03-.64,.43-1.05,.43-.76-.14-1.05-.43c-.29-.29-.43-.63-.43-1.03s.14-.77,.43-1.06Z"/>
    <path class="cls-20" d="M476.02,301.61h2.5v-13.48h2.58v9.9c.88-.93,1.81-1.64,2.78-2.11,.97-.47,1.96-.71,2.96-.71,.6,0,1.16,.12,1.69,.36,.53,.24,.99,.56,1.39,.96,.4,.4,.71,.87,.94,1.4,.23,.53,.34,1.1,.34,1.7v1.98h1.6v2.34h-16.76l-.02-2.34Zm12.52-2.16c0-.25-.05-.49-.15-.72-.1-.23-.23-.43-.4-.6-.17-.17-.36-.31-.59-.4-.23-.09-.47-.14-.72-.14-.27,0-.61,.05-1.03,.14-.42,.09-.88,.29-1.39,.58-.51,.29-1.03,.7-1.58,1.23-.55,.53-1.07,1.22-1.58,2.07h7.44v-2.16Z"/>
    <path class="cls-20" d="M493.12,301.61c.6,0,1.04-.11,1.32-.32,.28-.21,.42-.59,.42-1.12v-3.76h2.64v3.68c0,.53,.11,.92,.33,1.16,.22,.24,.62,.36,1.19,.36h1.14v2.34h-.38c-.65,0-1.19-.11-1.61-.34-.42-.23-.82-.64-1.21-1.24-.25,.53-.63,.93-1.14,1.19-.51,.26-1.1,.39-1.78,.39h-1.6v-2.34h.68Zm2.17-10.26c.29-.29,.64-.44,1.05-.44s.76,.15,1.05,.44c.29,.29,.43,.65,.43,1.06s-.14,.74-.43,1.03-.64,.43-1.05,.43-.76-.14-1.05-.43c-.29-.29-.43-.63-.43-1.03s.14-.77,.43-1.06Z"/>
    <path class="cls-20" d="M509.55,301.51c.24,.07,.51,.1,.8,.1h1.14v2.34h-.38c-.57,0-1.05-.08-1.43-.25-.38-.17-.74-.47-1.09-.91-.39,.36-.83,.64-1.34,.85-.51,.21-1.05,.31-1.62,.31h-5.82v-2.34h1.32v-1.98c0-.6,.11-1.17,.34-1.7s.54-1,.94-1.4c.4-.4,.86-.72,1.39-.96,.53-.24,1.09-.36,1.69-.36s1.17,.12,1.71,.36,1.02,.56,1.43,.96c.41,.4,.74,.87,.99,1.4,.25,.53,.37,1.1,.37,1.7,0,.67-.15,1.29-.44,1.88Zm-2.58-3.38c-.36-.36-.8-.54-1.32-.54-.25,0-.49,.05-.72,.14-.23,.09-.42,.23-.59,.4-.17,.17-.3,.37-.4,.6-.1,.23-.15,.47-.15,.72v2.16h1.86c.25,0,.49-.06,.72-.19,.23-.13,.43-.29,.6-.5,.17-.21,.31-.44,.4-.7,.09-.26,.14-.52,.14-.77,0-.52-.18-.96-.54-1.32Zm4.66,3.48c.61,0,1.06-.1,1.33-.31,.27-.21,.41-.58,.41-1.11v-12.06h2.58v12.08c0,.67-.1,1.23-.3,1.7s-.47,.85-.8,1.16c-.33,.31-.71,.53-1.14,.67-.43,.14-.87,.21-1.32,.21h-1.22v-2.34h.46Z"/>
    <path class="cls-20" d="M518.34,288.12h2.58v15.82h-2.58v-15.82Z"/>
  </g>
  <g>
    <path class="cls-20" d="M112.43,215.3c.23-.53,.55-.98,.94-1.37s.85-.69,1.38-.92c.53-.23,1.09-.34,1.69-.34h4.5v4.32c0,.08,0,.16-.01,.23,0,.07,0,.14,0,.21,0,.25,0,.47-.03,.66-.02,.19,0,.34,.03,.46s.12,.21,.25,.26,.33,.08,.61,.08h1.12v2.34h-1.34c-.51,0-.93-.1-1.27-.3-.34-.2-.61-.42-.81-.66-.39,.36-.83,.64-1.32,.84-.49,.2-1.02,.3-1.58,.3-.6,0-1.17-.12-1.71-.36-.54-.24-1.02-.56-1.43-.96-.41-.4-.74-.87-.99-1.4-.25-.53-.37-1.1-.37-1.7s.12-1.16,.35-1.69Zm1.92-6.67c.29-.29,.64-.44,1.05-.44s.76,.15,1.05,.44c.29,.29,.43,.65,.43,1.06s-.14,.74-.43,1.03c-.29,.29-.64,.43-1.05,.43s-.76-.14-1.05-.43-.43-.63-.43-1.03,.14-.77,.43-1.06Zm.75,9.86c.36,.36,.8,.54,1.32,.54,.25,0,.49-.05,.72-.14,.23-.09,.42-.23,.59-.4s.3-.37,.4-.59c.1-.22,.15-.46,.15-.73v-2.14h-1.86c-.27,0-.51,.06-.73,.19-.22,.13-.42,.29-.59,.5-.17,.21-.31,.44-.4,.69-.09,.25-.14,.51-.14,.76,0,.52,.18,.96,.54,1.32Zm2.55-9.86c.29-.29,.64-.44,1.05-.44s.76,.15,1.05,.44c.29,.29,.43,.65,.43,1.06s-.14,.74-.43,1.03c-.29,.29-.64,.43-1.05,.43s-.76-.14-1.05-.43-.43-.63-.43-1.03,.14-.77,.43-1.06Z"/>
    <path class="cls-20" d="M123.22,218.89c.6,0,1.04-.11,1.32-.32s.42-.59,.42-1.12v-3.76h2.64v3.68c0,.53,.11,.92,.33,1.16,.22,.24,.62,.36,1.19,.36h1.14v2.34h-.38c-.65,0-1.19-.11-1.61-.34-.42-.23-.82-.64-1.21-1.24-.25,.53-.63,.93-1.14,1.19-.51,.26-1.1,.39-1.78,.39h-1.6v-2.34h.68Zm2.17-10.26c.29-.29,.64-.44,1.05-.44s.76,.15,1.05,.44c.29,.29,.43,.65,.43,1.06s-.14,.74-.43,1.03c-.29,.29-.64,.43-1.05,.43s-.76-.14-1.05-.43c-.29-.29-.43-.63-.43-1.03s.14-.77,.43-1.06Z"/>
    <path class="cls-20" d="M129.63,222.93c.29-.29,.64-.44,1.05-.44s.76,.15,1.05,.44,.43,.65,.43,1.06-.14,.74-.43,1.03-.64,.43-1.05,.43-.76-.14-1.05-.43c-.29-.29-.43-.63-.43-1.03s.14-.77,.43-1.06Zm1.11-4.04c.61,0,1.06-.1,1.33-.31,.27-.21,.41-.58,.41-1.11v-3.78h2.58v3.8c0,.67-.1,1.23-.3,1.7s-.47,.85-.8,1.16c-.33,.31-.71,.53-1.14,.67s-.87,.21-1.32,.21h-1.6v-2.34h.84Zm2.19,4.04c.29-.29,.64-.44,1.05-.44s.76,.15,1.05,.44,.43,.65,.43,1.06-.14,.74-.43,1.03-.64,.43-1.05,.43-.76-.14-1.05-.43-.43-.63-.43-1.03,.14-.77,.43-1.06Z"/>
    <path class="cls-20" d="M142.12,218.89v-2.16c0-.25-.05-.49-.15-.72-.1-.23-.23-.43-.4-.6-.17-.17-.36-.31-.59-.4s-.47-.14-.72-.14h-2.24l-.02-2.2h2.42c.6,0,1.16,.11,1.69,.33,.53,.22,.99,.52,1.39,.9,.4,.38,.71,.83,.94,1.34,.23,.51,.34,1.07,.34,1.67v1.98h2.12l.02,2.34h-10.26v-2.34h5.46Z"/>
    <path class="cls-20" d="M156.3,218.79c.24,.07,.51,.1,.8,.1h1.14v2.34h-.38c-.57,0-1.05-.08-1.43-.25-.38-.17-.74-.47-1.09-.91-.39,.36-.83,.64-1.34,.85s-1.05,.31-1.62,.31h-5.82v-2.34h1.32v-1.98c0-.6,.11-1.17,.34-1.7,.23-.53,.54-1,.94-1.4,.4-.4,.86-.72,1.39-.96,.53-.24,1.09-.36,1.69-.36s1.17,.12,1.71,.36,1.02,.56,1.43,.96c.41,.4,.74,.87,.99,1.4,.25,.53,.37,1.1,.37,1.7,0,.67-.15,1.29-.44,1.88Zm-2.58-3.38c-.36-.36-.8-.54-1.32-.54-.25,0-.49,.05-.72,.14-.23,.09-.42,.23-.59,.4-.17,.17-.3,.37-.4,.6-.1,.23-.15,.47-.15,.72v2.16h1.86c.25,0,.49-.06,.72-.19,.23-.13,.43-.29,.6-.5,.17-.21,.31-.44,.4-.7,.09-.26,.14-.52,.14-.77,0-.52-.18-.96-.54-1.32Zm4.66,3.48c.61,0,1.06-.1,1.33-.31,.27-.21,.41-.58,.41-1.11v-12.06h2.58v12.08c0,.67-.1,1.23-.3,1.7s-.47,.85-.8,1.16c-.33,.31-.71,.53-1.14,.67s-.87,.21-1.32,.21h-1.22v-2.34h.46Z"/>
    <path class="cls-20" d="M165.1,205.41h2.58v15.82h-2.58v-15.82Z"/>
  </g>
  <g>
    <path class="cls-20" d="M173.51,306.23c.23-.53,.55-.98,.94-1.37s.85-.69,1.38-.92c.53-.23,1.09-.34,1.69-.34h4.5v4.32c0,.08,0,.16-.01,.23,0,.07,0,.14,0,.21,0,.25,0,.47-.03,.66-.02,.19,0,.34,.03,.46s.12,.21,.25,.26c.13,.05,.33,.08,.61,.08h1.12v2.34h-1.34c-.51,0-.93-.1-1.27-.3-.34-.2-.61-.42-.81-.66-.39,.36-.83,.64-1.32,.84-.49,.2-1.02,.3-1.58,.3-.6,0-1.17-.12-1.71-.36-.54-.24-1.02-.56-1.43-.96s-.74-.87-.99-1.4-.37-1.1-.37-1.7,.12-1.16,.35-1.69Zm1.92-6.67c.29-.29,.64-.44,1.05-.44s.76,.15,1.05,.44c.29,.29,.43,.65,.43,1.06s-.14,.74-.43,1.03-.64,.43-1.05,.43-.76-.14-1.05-.43c-.29-.29-.43-.63-.43-1.03s.14-.77,.43-1.06Zm.75,9.86c.36,.36,.8,.54,1.32,.54,.25,0,.49-.05,.72-.14,.23-.09,.42-.23,.59-.4,.17-.17,.3-.37,.4-.59,.1-.22,.15-.46,.15-.73v-2.14h-1.86c-.27,0-.51,.06-.73,.19-.22,.13-.42,.29-.59,.5-.17,.21-.31,.44-.4,.69-.09,.25-.14,.51-.14,.76,0,.52,.18,.96,.54,1.32Zm2.55-9.86c.29-.29,.64-.44,1.05-.44s.76,.15,1.05,.44c.29,.29,.43,.65,.43,1.06s-.14,.74-.43,1.03-.64,.43-1.05,.43-.76-.14-1.05-.43c-.29-.29-.43-.63-.43-1.03s.14-.77,.43-1.06Z"/>
    <path class="cls-20" d="M185.21,303.18c.17-.41,.43-.77,.79-1.06l7-6.16,1.6,1.92-6.52,5.72h2.92c.6,0,1.16,.11,1.69,.33,.53,.22,.99,.52,1.39,.9s.71,.83,.94,1.34c.23,.51,.34,1.07,.34,1.67v1.98h2.08v2.34h-13.82v-2.34h9.08v-2.16c0-.25-.05-.49-.15-.72-.1-.23-.23-.43-.4-.6-.17-.17-.36-.31-.59-.4-.23-.09-.47-.14-.72-.14h-5.84l-.02-1.42c-.01-.39,.06-.79,.23-1.2Z"/>
    <path class="cls-20" d="M206.91,309.53c-.23,.53-.55,.98-.94,1.37s-.85,.69-1.38,.92c-.53,.23-1.09,.34-1.69,.34h-5.82v-2.34h1.32v-1.98c0-.6,.11-1.17,.34-1.7s.54-1,.94-1.4c.4-.4,.86-.72,1.39-.96,.53-.24,1.09-.36,1.69-.36s1.17,.12,1.71,.36,1.02,.56,1.43,.96c.41,.4,.74,.87,.99,1.4,.25,.53,.37,1.1,.37,1.7s-.12,1.16-.35,1.69Zm-2.67-3.19c-.36-.36-.8-.54-1.32-.54-.25,0-.49,.05-.72,.14-.23,.09-.42,.23-.59,.4-.17,.17-.3,.37-.4,.6-.1,.23-.15,.47-.15,.72v2.16h1.86c.25,0,.49-.06,.72-.19,.23-.13,.43-.29,.6-.5,.17-.21,.31-.44,.4-.7,.09-.26,.14-.52,.14-.77,0-.52-.18-.96-.54-1.32Z"/>
  </g>
  <g>
    <path class="cls-20" d="M283.73,412.27c-.53-.24-.99-.56-1.39-.96-.4-.4-.71-.87-.94-1.4-.23-.53-.34-1.1-.34-1.7v-5.32h2.66v5.5c0,.27,.05,.51,.15,.74,.1,.23,.23,.43,.4,.6,.17,.17,.36,.31,.59,.41,.23,.1,.47,.15,.72,.15h2.16c.25,0,.49-.05,.72-.15,.23-.1,.42-.24,.59-.41,.17-.17,.3-.37,.4-.6,.1-.23,.15-.47,.15-.74v-7.52h2.66v7.34c0,.6-.11,1.17-.34,1.7-.23,.53-.54,1-.94,1.4-.4,.4-.86,.72-1.39,.96-.53,.24-1.09,.36-1.69,.36h-2.48c-.6,0-1.16-.12-1.69-.36Zm1.84-14.88c.29-.29,.64-.44,1.05-.44s.76,.15,1.05,.44c.29,.29,.43,.65,.43,1.06s-.14,.74-.43,1.03c-.29,.29-.64,.43-1.05,.43s-.76-.14-1.05-.43c-.29-.29-.43-.63-.43-1.03s.14-.77,.43-1.06Z"/>
    <path class="cls-20" d="M294.66,392.58h2.58v15.82h-2.58v-15.82Z"/>
    <path class="cls-20" d="M303.92,408.41v.98c0,.48-.07,.92-.21,1.31-.14,.39-.34,.73-.61,1.02-.27,.29-.59,.51-.97,.67-.38,.16-.81,.24-1.29,.24h-.7c-.39,0-.72-.03-.99-.09-.27-.06-.44-.1-.51-.13v-2.22c.09,.03,.21,.05,.34,.07,.13,.02,.29,.03,.48,.03h.7c.4,0,.68-.1,.85-.31,.17-.21,.25-.49,.25-.85v-8.26h2.66v5.2h1.96v2.34h-1.96Z"/>
    <path class="cls-20" d="M312.42,406.07v-2.16c0-.25-.05-.49-.15-.72-.1-.23-.23-.43-.4-.6-.17-.17-.36-.31-.59-.4-.23-.09-.47-.14-.72-.14h-3.68l-.02-2.2h3.86c.6,0,1.16,.11,1.69,.33,.53,.22,.99,.52,1.39,.9s.71,.83,.94,1.34,.34,1.07,.34,1.67v1.98h1.72v2.34h-11.28v-2.34h6.9Zm-2.83,4.02c.29-.29,.64-.44,1.05-.44s.76,.15,1.05,.44,.43,.65,.43,1.06-.14,.74-.43,1.03c-.29,.29-.64,.43-1.05,.43s-.76-.14-1.05-.43c-.29-.29-.43-.63-.43-1.03s.14-.77,.43-1.06Z"/>
    <path class="cls-20" d="M317.28,406.07c.61,0,1.06-.1,1.33-.31s.41-.58,.41-1.11v-3.78h2.58v3.8c0,.67-.1,1.23-.3,1.7-.2,.47-.47,.85-.8,1.16s-.71,.53-1.14,.67c-.43,.14-.87,.21-1.32,.21h-1.6v-2.34h.84Zm2.01-10.26c.29-.29,.64-.44,1.05-.44s.76,.15,1.05,.44c.29,.29,.43,.65,.43,1.06s-.14,.74-.43,1.03c-.29,.29-.64,.43-1.05,.43s-.76-.14-1.05-.43-.43-.63-.43-1.03,.14-.77,.43-1.06Z"/>
  </g>
  <g>
    <path class="cls-20" d="M273.83,218.08c-.53-.24-.99-.56-1.39-.96-.4-.4-.71-.87-.94-1.4-.23-.53-.34-1.1-.34-1.7v-5.32h2.66v5.5c0,.27,.05,.51,.15,.74s.23,.43,.4,.6c.17,.17,.36,.31,.59,.41s.47,.15,.72,.15h2.16c.25,0,.49-.05,.72-.15s.42-.24,.59-.41c.17-.17,.3-.37,.4-.6,.1-.23,.15-.47,.15-.74v-8.24h2.66v2.34c.88-.93,1.81-1.64,2.78-2.11,.97-.47,1.96-.71,2.96-.71,.6,0,1.16,.12,1.69,.36,.53,.24,.99,.56,1.39,.96,.4,.4,.71,.87,.94,1.4,.23,.53,.34,1.1,.34,1.7v4.32h-10.1c-.03,.57-.16,1.11-.4,1.62-.24,.51-.56,.95-.95,1.34-.39,.39-.85,.69-1.37,.92-.52,.23-1.07,.34-1.64,.34h-2.48c-.6,0-1.16-.12-1.69-.36Zm15.97-8.36c0-.25-.05-.49-.15-.72-.1-.23-.23-.43-.4-.6s-.36-.31-.59-.4-.47-.14-.72-.14c-.27,0-.61,.05-1.03,.14-.42,.09-.88,.29-1.39,.58s-1.03,.7-1.58,1.23c-.55,.53-1.07,1.22-1.58,2.07h7.44v-2.16Zm-4.51-8.1c.29-.29,.64-.44,1.05-.44s.76,.15,1.05,.44,.43,.65,.43,1.06-.14,.74-.43,1.03-.64,.43-1.05,.43-.76-.14-1.05-.43c-.29-.29-.43-.63-.43-1.03s.14-.77,.43-1.06Z"/>
    <path class="cls-20" d="M298.32,214.22c-.45,0-.89-.07-1.32-.21s-.81-.36-1.14-.67c-.33-.31-.6-.69-.8-1.16s-.3-1.03-.3-1.7v-12.08h2.58v12.06c0,.53,.14,.9,.41,1.11,.27,.21,.72,.31,1.33,.31h.46v2.34h-1.22Z"/>
    <path class="cls-20" d="M298.91,215.92c.29-.29,.64-.44,1.05-.44s.76,.15,1.05,.44,.43,.65,.43,1.06-.14,.74-.43,1.03c-.29,.29-.64,.43-1.05,.43s-.76-.14-1.05-.43c-.29-.29-.43-.63-.43-1.03s.14-.77,.43-1.06Zm1.11-4.04c.61,0,1.06-.1,1.33-.31,.27-.21,.41-.58,.41-1.11v-3.78h2.58v3.8c0,.67-.1,1.23-.3,1.7-.2,.47-.47,.85-.8,1.16-.33,.31-.71,.53-1.14,.67s-.87,.21-1.32,.21h-1.6v-2.34h.84Zm2.19,4.04c.29-.29,.64-.44,1.05-.44s.76,.15,1.05,.44c.29,.29,.43,.65,.43,1.06s-.14,.74-.43,1.03c-.29,.29-.64,.43-1.05,.43s-.76-.14-1.05-.43c-.29-.29-.43-.63-.43-1.03s.14-.77,.43-1.06Z"/>
    <path class="cls-20" d="M311.02,214.22v.98c0,.48-.07,.92-.21,1.31-.14,.39-.34,.73-.61,1.02-.27,.29-.59,.51-.97,.67-.38,.16-.81,.24-1.29,.24h-.7c-.39,0-.72-.03-.99-.09s-.44-.1-.51-.13v-2.22c.09,.03,.21,.05,.34,.07,.13,.02,.29,.03,.48,.03h.7c.4,0,.68-.1,.85-.31,.17-.21,.25-.49,.25-.85v-8.26h2.66v5.2h1.96v2.34h-1.96Z"/>
    <path class="cls-20" d="M313.08,211.88c.61,0,1.06-.1,1.33-.31,.27-.21,.41-.58,.41-1.11v-12.06h2.58v12.08c0,.67-.1,1.23-.3,1.7s-.47,.85-.8,1.16c-.33,.31-.71,.53-1.14,.67s-.87,.21-1.32,.21h-1.22v-2.34h.46Z"/>
    <path class="cls-20" d="M319.8,198.39h2.58v15.82h-2.58v-15.82Z"/>
  </g>
  <g>
    <path class="cls-3" d="M300.82,165.07c-4.48,0-8.07,3.88-8.07,8.37,0,4.78,8.07,20.32,8.07,20.32,0,0,8.37-15.54,8.37-20.32,0-4.48-3.59-8.37-8.37-8.37h0Zm0,12.85c-2.39,0-4.18-2.09-4.18-4.48s1.79-4.18,4.18-4.18c2.69,0,4.48,1.79,4.48,4.18s-1.79,4.48-4.48,4.48h0Z"/>
    <path class="cls-8" d="M300.82,165.07c-4.48,0-8.07,3.88-8.07,8.37,0,4.78,8.07,20.32,8.07,20.32,0,0,8.37-15.54,8.37-20.32,0-4.48-3.59-8.37-8.37-8.37h0Zm0,12.85c-2.39,0-4.18-2.09-4.18-4.48s1.79-4.18,4.18-4.18c2.69,0,4.48,1.79,4.48,4.18s-1.79,4.48-4.48,4.48h0Z"/>
  </g>
  <g>
    <path class="cls-3" d="M447.82,248.72c-4.48,0-8.07,3.88-8.07,8.37,0,4.78,8.07,20.32,8.07,20.32,0,0,8.37-15.54,8.37-20.32,0-4.48-3.59-8.37-8.37-8.37h0Zm0,12.85c-2.39,0-4.18-2.09-4.18-4.48s1.79-4.18,4.18-4.18c2.69,0,4.48,1.79,4.48,4.18s-1.79,4.48-4.48,4.48h0Z"/>
    <path class="cls-8" d="M447.82,248.72c-4.48,0-8.07,3.88-8.07,8.37,0,4.78,8.07,20.32,8.07,20.32,0,0,8.37-15.54,8.37-20.32,0-4.48-3.59-8.37-8.37-8.37h0Zm0,12.85c-2.39,0-4.18-2.09-4.18-4.48s1.79-4.18,4.18-4.18c2.69,0,4.48,1.79,4.48,4.18s-1.79,4.48-4.48,4.48h0Z"/>
  </g>
  <g>
    <path class="cls-3" d="M191.73,261.57c-4.48,0-8.07,3.88-8.07,8.37,0,4.78,8.07,20.32,8.07,20.32,0,0,8.37-15.54,8.37-20.32,0-4.48-3.59-8.37-8.37-8.37h0Zm0,12.85c-2.39,0-4.18-2.09-4.18-4.48s1.79-4.18,4.18-4.18c2.69,0,4.48,1.79,4.48,4.18s-1.79,4.48-4.48,4.48h0Z"/>
    <path class="cls-8" d="M191.73,261.57c-4.48,0-8.07,3.88-8.07,8.37,0,4.78,8.07,20.32,8.07,20.32,0,0,8.37-15.54,8.37-20.32,0-4.48-3.59-8.37-8.37-8.37h0Zm0,12.85c-2.39,0-4.18-2.09-4.18-4.48s1.79-4.18,4.18-4.18c2.69,0,4.48,1.79,4.48,4.18s-1.79,4.48-4.48,4.48h0Z"/>
  </g>
  <g>
    <path class="cls-3" d="M301.29,362.16c-4.48,0-8.07,3.88-8.07,8.37,0,4.78,8.07,20.32,8.07,20.32,0,0,8.37-15.54,8.37-20.32,0-4.48-3.59-8.37-8.37-8.37h0Zm0,12.85c-2.39,0-4.18-2.09-4.18-4.48s1.79-4.18,4.18-4.18c2.69,0,4.48,1.79,4.48,4.18s-1.79,4.48-4.48,4.48h0Z"/>
    <path class="cls-8" d="M301.29,362.16c-4.48,0-8.07,3.88-8.07,8.37,0,4.78,8.07,20.32,8.07,20.32,0,0,8.37-15.54,8.37-20.32,0-4.48-3.59-8.37-8.37-8.37h0Zm0,12.85c-2.39,0-4.18-2.09-4.18-4.48s1.79-4.18,4.18-4.18c2.69,0,4.48,1.79,4.48,4.18s-1.79,4.48-4.48,4.48h0Z"/>
  </g>
  <g>
    <path class="cls-3" d="M133.83,174.31c-4.48,0-8.07,3.88-8.07,8.37,0,4.78,8.07,20.32,8.07,20.32,0,0,8.37-15.54,8.37-20.32,0-4.48-3.59-8.37-8.37-8.37h0Zm0,12.85c-2.39,0-4.18-2.09-4.18-4.48s1.79-4.18,4.18-4.18c2.69,0,4.48,1.79,4.48,4.18s-1.79,4.48-4.48,4.48h0Z"/>
    <path class="cls-8" d="M133.83,174.31c-4.48,0-8.07,3.88-8.07,8.37,0,4.78,8.07,20.32,8.07,20.32,0,0,8.37-15.54,8.37-20.32,0-4.48-3.59-8.37-8.37-8.37h0Zm0,12.85c-2.39,0-4.18-2.09-4.18-4.48s1.79-4.18,4.18-4.18c2.69,0,4.48,1.79,4.48,4.18s-1.79,4.48-4.48,4.48h0Z"/>
  </g>
</svg>